<svg width="48" height="48" viewBox="0 0 48 48" fill="none" xmlns="http://www.w3.org/2000/svg">
<circle cx="24" cy="24" r="24" fill="#3C82FB"/>
<path d="M28.2847 43.6846C36.5318 41.8971 42.8965 35.0587 43.9781 26.5703M19.711 43.6846C11.4639 41.8971 5.09917 35.0587 4.01758 26.5703" stroke="white" stroke-width="0.857143"/>
<g clip-path="url(#clip0_5159_8091)">
<path d="M24.9629 44.1417C24.7855 44.1417 24.6415 43.9977 24.6415 43.8203V42.856C24.6415 42.5016 24.353 42.2132 23.9986 42.2132C23.6442 42.2132 23.3557 42.5016 23.3557 42.856V43.8203C23.3557 43.9977 23.2117 44.1417 23.0343 44.1417C22.8569 44.1417 22.7129 43.9977 22.7129 43.8203V42.856C22.7129 42.1472 23.2897 41.5703 23.9986 41.5703C24.7075 41.5703 25.2843 42.1472 25.2843 42.856V43.8203C25.2843 43.9977 25.1403 44.1417 24.9629 44.1417Z" fill="white"/>
<path d="M25.3906 43.498H22.6049C22.0731 43.498 21.6406 43.9305 21.6406 44.4623V45.748C21.6406 46.2799 22.0731 46.7123 22.6049 46.7123H25.3906C25.9225 46.7123 26.3549 46.2799 26.3549 45.748V44.4623C26.3549 43.9305 25.9225 43.498 25.3906 43.498ZM24.3192 45.3195C24.3192 45.4969 24.1752 45.6409 23.9978 45.6409C23.8203 45.6409 23.6763 45.4969 23.6763 45.3195V44.8909C23.6763 44.7135 23.8203 44.5695 23.9978 44.5695C24.1752 44.5695 24.3192 44.7135 24.3192 44.8909V45.3195Z" fill="white"/>
</g>
<path d="M3.19989 21.8234L3.18009 22.3922C3.08623 22.4052 3.00255 22.4322 2.92904 22.4733C2.85451 22.5144 2.79077 22.5665 2.73781 22.6296C2.68485 22.6927 2.64425 22.7654 2.616 22.8477C2.58678 22.9289 2.57051 23.0172 2.56719 23.1125C2.56129 23.2818 2.59866 23.4334 2.67928 23.5672C2.75888 23.7009 2.87902 23.8076 3.0397 23.8873C3.19936 23.967 3.39631 24.0109 3.63054 24.0191C3.86883 24.0274 4.07089 23.9973 4.23672 23.929C4.40157 23.8596 4.52783 23.7615 4.6155 23.6346C4.70219 23.5066 4.74846 23.3585 4.75433 23.1902C4.75757 23.0969 4.74844 23.0093 4.72693 22.9273C4.70444 22.8443 4.66999 22.7695 4.62358 22.7029C4.5772 22.6353 4.5193 22.5779 4.44987 22.5308C4.38048 22.4827 4.30046 22.4485 4.2098 22.4281L4.23265 21.8593C4.37995 21.8858 4.51726 21.9368 4.64458 22.0123C4.77194 22.0867 4.88332 22.1825 4.97874 22.2995C5.07314 22.4165 5.14558 22.552 5.19606 22.7061C5.24551 22.8601 5.26701 23.0299 5.26055 23.2154C5.25102 23.4892 5.17913 23.7314 5.0449 23.9419C4.91066 24.1525 4.72174 24.3154 4.47813 24.4308C4.23452 24.5462 3.94541 24.598 3.61079 24.5864C3.27515 24.5747 2.99036 24.5024 2.75642 24.3693C2.52146 24.2363 2.34435 24.0601 2.22508 23.8407C2.10582 23.6213 2.05092 23.3757 2.06038 23.104C2.06642 22.9306 2.09637 22.7702 2.15023 22.6229C2.20409 22.4755 2.28021 22.3451 2.37857 22.2318C2.47592 22.1185 2.59383 22.0266 2.73232 21.9563C2.86983 21.885 3.02569 21.8407 3.19989 21.8234ZM5.47625 20.9697C5.4505 21.1156 5.40132 21.2424 5.32873 21.3501C5.25531 21.4567 5.16115 21.5348 5.04624 21.5846C4.93151 21.6334 4.7987 21.6444 4.64783 21.6178C4.51794 21.5949 4.41476 21.5519 4.3383 21.489C4.26184 21.426 4.20545 21.3486 4.16914 21.2567C4.13282 21.1647 4.11085 21.0645 4.10321 20.956C4.09476 20.8463 4.09441 20.7345 4.10218 20.6205C4.11201 20.4831 4.11883 20.3715 4.12266 20.2856C4.12549 20.1996 4.11826 20.1355 4.10099 20.0933C4.08289 20.0499 4.04786 20.0236 3.9959 20.0144L3.98691 20.0129C3.87401 19.9929 3.78067 20.011 3.7069 20.067C3.63314 20.123 3.58514 20.2139 3.56291 20.3398C3.53945 20.4727 3.54982 20.5832 3.59401 20.6714C3.63838 20.7586 3.69765 20.8226 3.77182 20.8635L3.61045 21.3574C3.47762 21.2927 3.37236 21.2061 3.29467 21.0976C3.21598 20.989 3.16488 20.864 3.14138 20.7228C3.11688 20.5815 3.11883 20.4304 3.14723 20.2695C3.16681 20.1586 3.1993 20.0505 3.24468 19.9452C3.29006 19.8399 3.35075 19.747 3.42675 19.6667C3.50176 19.5862 3.59507 19.5274 3.70668 19.4905C3.81847 19.4525 3.95081 19.447 4.10368 19.474L5.64438 19.746L5.5523 20.2676L5.23607 20.2118L5.23289 20.2297C5.29102 20.274 5.34276 20.331 5.38813 20.4009C5.43268 20.4695 5.464 20.5518 5.48209 20.6477C5.49937 20.7425 5.49742 20.8498 5.47625 20.9697ZM5.10246 20.7584C5.12169 20.6495 5.11687 20.5513 5.08802 20.4638C5.05817 20.3761 5.01107 20.3044 4.94671 20.2488C4.88254 20.1921 4.80798 20.1563 4.72306 20.1413L4.45178 20.0934C4.46277 20.1128 4.47065 20.1441 4.4754 20.1872C4.48034 20.2293 4.48289 20.2761 4.48306 20.3276C4.48324 20.3792 4.4825 20.43 4.48085 20.4802C4.4792 20.5304 4.4777 20.574 4.47634 20.6108C4.47304 20.6937 4.47824 20.7693 4.49193 20.8376C4.50562 20.906 4.53168 20.9626 4.57012 21.0075C4.60755 21.0523 4.66124 21.0808 4.73118 21.0932C4.8311 21.1108 4.91297 21.0876 4.97681 21.0237C5.04064 20.9598 5.08253 20.8713 5.10246 20.7584ZM2.84287 18.1083L5.86156 18.8845L5.72437 19.4181L2.70567 18.6419L2.84287 18.1083ZM5.96312 18.5473L3.73162 17.8508L3.89576 17.3249L6.12726 18.0214L5.96312 18.5473ZM3.49743 17.4876C3.47143 17.5709 3.42146 17.6339 3.34751 17.6768C3.2726 17.7193 3.19591 17.7283 3.11746 17.7038C3.03804 17.679 2.9801 17.628 2.94364 17.5507C2.9062 17.4731 2.90048 17.3927 2.92648 17.3094C2.95278 17.2251 3.00323 17.1622 3.07785 17.1207C3.1518 17.0779 3.22848 17.0688 3.3079 17.0936C3.38635 17.1181 3.44429 17.1691 3.48173 17.2467C3.51849 17.323 3.52373 17.4033 3.49743 17.4876ZM4.45656 15.7752L4.85673 15.9217L4.38176 17.2194L3.98159 17.0729L4.45656 15.7752ZM6.29558 17.552L3.8931 16.6726C3.74541 16.6186 3.63366 16.5431 3.55784 16.4462C3.48237 16.3484 3.43935 16.2386 3.42876 16.117C3.41818 15.9953 3.43608 15.8712 3.48246 15.7444C3.51524 15.6549 3.55151 15.5779 3.59126 15.5136C3.63101 15.4493 3.6627 15.4025 3.68634 15.3734L4.04885 15.6227C4.03416 15.6422 4.01738 15.6674 3.9985 15.6983C3.97868 15.7289 3.96126 15.7646 3.94627 15.8056C3.91105 15.9018 3.90946 15.9785 3.9415 16.0356C3.97293 16.0914 4.03153 16.135 4.11728 16.1664L6.48546 17.0332L6.29558 17.552ZM7.22527 15.5799C7.12266 15.7838 6.98887 15.9379 6.8239 16.0424C6.65893 16.1468 6.47503 16.1996 6.2722 16.2009C6.06982 16.2013 5.86078 16.1472 5.64507 16.0387C5.42936 15.9302 5.26091 15.7943 5.13971 15.6311C5.01897 15.467 4.95136 15.2876 4.93688 15.0929C4.92239 14.8982 4.96646 14.6989 5.06906 14.495C5.17167 14.291 5.30546 14.1369 5.47043 14.0325C5.6354 13.9281 5.81953 13.8759 6.02281 13.876C6.22655 13.8751 6.43627 13.9289 6.65198 14.0375C6.86769 14.146 7.03546 14.2821 7.1553 14.4458C7.27558 14.6085 7.34297 14.7872 7.35745 14.9819C7.37194 15.1766 7.32788 15.3759 7.22527 15.5799ZM6.83238 15.3788C6.88801 15.2682 6.90416 15.1605 6.88083 15.0556C6.85659 14.9503 6.80193 14.8535 6.71685 14.7652C6.63222 14.6761 6.52647 14.5996 6.39958 14.5357C6.27178 14.4714 6.14687 14.4319 6.02485 14.4171C5.90238 14.4009 5.79163 14.4144 5.69261 14.4577C5.59358 14.501 5.51625 14.578 5.46061 14.6886C5.40361 14.8019 5.387 14.9116 5.41078 15.0179C5.43502 15.1232 5.4899 15.2207 5.57544 15.3103C5.66052 15.3985 5.76696 15.4748 5.89475 15.5391C6.02164 15.6029 6.14587 15.6427 6.26744 15.6584C6.38946 15.6733 6.49998 15.659 6.59901 15.6157C6.69758 15.571 6.77537 15.4921 6.83238 15.3788ZM7.82302 14.347L5.83786 13.1125L6.11995 12.6589L6.45081 12.8646L6.46367 12.8439C6.37158 12.7365 6.32184 12.6195 6.31445 12.4931C6.30674 12.3652 6.33824 12.2444 6.40896 12.1307C6.42504 12.1048 6.44428 12.0768 6.46669 12.0465C6.48877 12.0148 6.50866 11.9896 6.52637 11.9707L6.95674 12.2383C6.93753 12.2539 6.91194 12.2816 6.87998 12.3214C6.8477 12.3599 6.81923 12.399 6.79458 12.4386C6.74154 12.5239 6.71238 12.6121 6.70711 12.7032C6.7015 12.7929 6.71896 12.8772 6.75947 12.9562C6.79998 13.0352 6.86245 13.1009 6.94689 13.1534L8.11395 13.8791L7.82302 14.347ZM7.9043 11.8216L8.97639 12.6741L8.6335 13.1053L6.80379 11.6504L7.13153 11.2382L7.44244 11.4855L7.45949 11.464C7.39051 11.3405 7.36247 11.2086 7.37537 11.0685C7.3889 10.9276 7.44997 10.7889 7.55859 10.6523C7.65899 10.526 7.77345 10.4375 7.90197 10.3867C8.03112 10.3352 8.16744 10.3243 8.31093 10.3541C8.45505 10.3832 8.59986 10.4562 8.74535 10.5732L9.91036 11.4996L9.56746 11.9308L8.46916 11.0575C8.34686 10.9602 8.22591 10.9159 8.1063 10.9245C7.98732 10.9323 7.88363 10.9918 7.79522 11.1029C7.73523 11.1784 7.69855 11.2588 7.68517 11.344C7.67164 11.4279 7.68258 11.5111 7.718 11.5938C7.75405 11.6756 7.81615 11.7515 7.9043 11.8216ZM10.1383 11.2429L8.40839 9.6706L8.77893 9.26289L10.5089 10.8352L10.1383 11.2429ZM8.34916 9.24247C8.29047 9.30704 8.21858 9.34316 8.13347 9.35081C8.04761 9.35778 7.97427 9.33363 7.91346 9.27836C7.85189 9.2224 7.82086 9.1517 7.82037 9.06625C7.81913 8.98012 7.84785 8.90477 7.90654 8.84019C7.96591 8.77487 8.03818 8.7391 8.12336 8.73288C8.20847 8.72522 8.2818 8.74937 8.34337 8.80533C8.40419 8.86061 8.43522 8.93131 8.43646 9.01744C8.43763 9.10214 8.40853 9.17715 8.34916 9.24247ZM11.2974 10.1797C11.1873 10.2788 11.0704 10.3484 10.9469 10.3886C10.8235 10.4274 10.7011 10.431 10.5799 10.3995C10.4595 10.3673 10.348 10.2942 10.2456 10.1803C10.1573 10.0823 10.1025 9.98493 10.081 9.88825C10.0595 9.79156 10.0627 9.69583 10.0907 9.60103C10.1187 9.50623 10.1631 9.41374 10.2239 9.32354C10.2847 9.23191 10.3533 9.14356 10.4296 9.0585C10.5219 8.95631 10.596 8.87257 10.6519 8.80726C10.7071 8.74119 10.7409 8.68622 10.7533 8.64233C10.7657 8.597 10.7543 8.55473 10.719 8.51551L10.7129 8.50873C10.6362 8.42351 10.5516 8.38025 10.4589 8.37897C10.3663 8.37768 10.2725 8.4198 10.1775 8.50532C10.0772 8.59559 10.0173 8.68907 9.99785 8.78575C9.97914 8.88175 9.98642 8.96871 10.0197 9.04661L9.58844 9.33642C9.52359 9.20369 9.49395 9.07066 9.49954 8.93732C9.50444 8.80323 9.5411 8.67333 9.6095 8.54762C9.67723 8.42115 9.7718 8.30327 9.89322 8.194C9.97694 8.11866 10.0691 8.05347 10.1697 7.99842C10.2703 7.94336 10.3753 7.90758 10.4846 7.89107C10.5933 7.8738 10.703 7.88497 10.8137 7.92456C10.9252 7.96348 11.0328 8.04063 11.1367 8.15602L12.1833 9.31895L11.7896 9.67324L11.5748 9.43455L11.5612 9.44676C11.5797 9.51743 11.5854 9.59424 11.5782 9.67719C11.571 9.75872 11.545 9.84284 11.5002 9.92957C11.4555 10.0149 11.3879 10.0982 11.2974 10.1797ZM11.1329 9.78307C11.2151 9.70909 11.2718 9.62873 11.3029 9.54201C11.3334 9.45453 11.3404 9.36904 11.324 9.28556C11.3083 9.20139 11.2716 9.12726 11.2139 9.06315L11.0296 8.8584C11.0263 8.88049 11.0133 8.90998 10.9905 8.94686C10.9685 8.98306 10.9417 9.02152 10.9101 9.06224C10.8785 9.10297 10.8466 9.1426 10.8144 9.18113C10.7822 9.21967 10.7542 9.25304 10.7304 9.28124C10.6768 9.34452 10.6343 9.4073 10.603 9.46959C10.5717 9.53188 10.5574 9.59256 10.56 9.65161C10.562 9.7099 10.5867 9.76545 10.6343 9.81824C10.7021 9.89365 10.7809 9.92582 10.8706 9.91474C10.9602 9.90365 11.0477 9.85976 11.1329 9.78307ZM14.3506 5.4538L13.8662 5.75279C13.8034 5.68189 13.7345 5.62725 13.6595 5.58887C13.584 5.54963 13.5053 5.52547 13.4234 5.51642C13.3415 5.50736 13.2585 5.51389 13.1744 5.53601C13.0906 5.55673 13.0081 5.59214 12.927 5.64224C12.7828 5.73125 12.6774 5.84639 12.6108 5.98766C12.5436 6.12807 12.5215 6.28723 12.5442 6.46514C12.5665 6.64218 12.6392 6.83042 12.7623 7.02986C12.8875 7.23274 13.0246 7.38423 13.1734 7.48433C13.3226 7.58303 13.4743 7.63366 13.6285 7.63624C13.783 7.63742 13.932 7.59377 14.0753 7.5053C14.1547 7.45626 14.2226 7.40007 14.2788 7.33671C14.3354 7.27196 14.3786 7.2018 14.4082 7.12625C14.4388 7.05017 14.4544 6.97018 14.4551 6.8863C14.4566 6.80188 14.4407 6.71629 14.4075 6.62953L14.8934 6.33312C14.9531 6.47037 14.9868 6.61289 14.9946 6.76071C15.0032 6.908 14.9853 7.05379 14.9409 7.19809C14.8959 7.34153 14.8233 7.47696 14.7231 7.60439C14.6224 7.73096 14.493 7.84301 14.335 7.94054C14.1019 8.08444 13.8605 8.15893 13.6109 8.164C13.3612 8.16907 13.1208 8.10224 12.8897 7.96351C12.6586 7.82478 12.4551 7.61296 12.2793 7.32805C12.1028 7.04228 12.0051 6.76517 11.9861 6.49673C11.9665 6.22742 12.0149 5.98232 12.1313 5.76141C12.2477 5.5405 12.4216 5.35863 12.653 5.21579C12.8006 5.12466 12.9507 5.06063 13.1032 5.02373C13.2557 4.98682 13.4063 4.97787 13.5552 4.99687C13.7035 5.01501 13.8453 5.0622 13.9806 5.13845C14.1163 5.21331 14.2396 5.31842 14.3506 5.4538ZM16.6415 6.74279C16.4318 6.83312 16.2302 6.86529 16.0367 6.83929C15.8432 6.81329 15.6684 6.73563 15.5121 6.6063C15.3568 6.47658 15.2313 6.30083 15.1358 6.07907C15.0402 5.8573 14.9984 5.64495 15.0104 5.44203C15.0234 5.2387 15.0868 5.05779 15.2008 4.8993C15.3148 4.7408 15.4766 4.61639 15.6863 4.52605C15.896 4.43572 16.0975 4.40355 16.291 4.42955C16.4845 4.45555 16.6591 4.53388 16.8149 4.66454C16.9715 4.79479 17.0976 4.9708 17.1932 5.19257C17.2887 5.41433 17.3298 5.62641 17.3165 5.82881C17.3041 6.0308 17.2409 6.21105 17.1269 6.36954C17.0129 6.52803 16.8511 6.65245 16.6415 6.74279ZM16.4696 6.33625C16.5833 6.28727 16.6649 6.2151 16.7144 6.11975C16.7635 6.02347 16.7838 5.91418 16.7753 5.7919C16.7677 5.66921 16.7358 5.54264 16.6796 5.41219C16.623 5.28081 16.5527 5.17024 16.4687 5.08047C16.3853 4.98938 16.2917 4.92861 16.188 4.89817C16.0843 4.86773 15.9756 4.877 15.8619 4.92598C15.7455 4.97617 15.6622 5.04961 15.6122 5.14629C15.5631 5.24258 15.5425 5.35253 15.5505 5.47615C15.559 5.59843 15.5915 5.72526 15.6481 5.85665C15.7043 5.9871 15.774 6.0974 15.857 6.18757C15.941 6.27733 16.0348 6.33743 16.1385 6.36787C16.2428 6.39698 16.3531 6.38644 16.4696 6.33625ZM18.0367 4.72133L18.4224 6.0356L17.8938 6.19077L17.2354 3.94773L17.7407 3.79943L17.8526 4.18057L17.8788 4.17285C17.8936 4.03212 17.9465 3.90819 18.0378 3.80105C18.1299 3.69363 18.2598 3.61534 18.4272 3.56619C18.582 3.52076 18.7266 3.51428 18.8609 3.54676C18.9961 3.57896 19.1139 3.64856 19.214 3.75558C19.3151 3.8623 19.3915 4.00538 19.4431 4.18479L19.8623 5.61297L19.3337 5.76814L18.9385 4.42173C18.8945 4.27181 18.8211 4.16593 18.7183 4.10409C18.6166 4.04197 18.4975 4.03091 18.3612 4.07091C18.2687 4.09806 18.1925 4.14265 18.1324 4.20468C18.0731 4.26546 18.0341 4.33982 18.0155 4.42775C17.9979 4.51541 18.0049 4.61326 18.0367 4.72133ZM21.7394 3.54993L21.253 3.6864C21.2307 3.63869 21.1983 3.59573 21.156 3.55752C21.1146 3.51914 21.0627 3.49127 21.0001 3.47391C20.9376 3.45654 20.8643 3.45485 20.7802 3.46884C20.6671 3.48766 20.5761 3.528 20.5072 3.58986C20.4393 3.65156 20.4123 3.72136 20.4263 3.79926C20.4365 3.86648 20.4701 3.91695 20.5271 3.95066C20.5851 3.9842 20.675 4.00474 20.7966 4.01228L21.2039 4.03091C21.4299 4.04165 21.6044 4.08924 21.7275 4.17367C21.8516 4.25794 21.9279 4.38257 21.9563 4.54754C21.9795 4.69283 21.9583 4.82802 21.8927 4.9531C21.8279 5.07701 21.7266 5.18232 21.5888 5.26902C21.451 5.35571 21.2861 5.41505 21.0939 5.44702C20.8117 5.49398 20.5746 5.47273 20.3828 5.38327C20.1909 5.29281 20.0607 5.14424 19.9924 4.93755L20.5139 4.79834C20.5552 4.89843 20.6193 4.9685 20.7062 5.00856C20.7931 5.04862 20.8991 5.05824 21.0242 5.03742C21.1533 5.01594 21.2525 4.97218 21.3217 4.90615C21.392 4.83995 21.4206 4.76782 21.4076 4.68975C21.3966 4.62369 21.362 4.57339 21.3038 4.53885C21.2466 4.50414 21.1631 4.4841 21.0531 4.47873L20.6461 4.4616C20.4172 4.45236 20.2407 4.40202 20.1164 4.31058C19.992 4.21814 19.9163 4.08776 19.8894 3.91945C19.8647 3.7775 19.8828 3.64798 19.9435 3.53091C20.0051 3.41266 20.1012 3.31336 20.2318 3.233C20.3633 3.15147 20.5211 3.09538 20.7053 3.06474C20.9755 3.01978 21.1977 3.04195 21.372 3.13124C21.5473 3.22036 21.6698 3.35992 21.7394 3.54993ZM23.7655 4.20157L23.7187 2.84787L24.2693 2.82883L24.3501 5.1651L23.8162 5.18356L23.8019 4.76832L23.7775 4.76916C23.7293 4.90179 23.6463 5.01177 23.5285 5.09909C23.4118 5.18637 23.2657 5.23305 23.0902 5.23911C22.9371 5.24441 22.8006 5.21512 22.6806 5.15125C22.5616 5.08633 22.4669 4.9896 22.3965 4.86108C22.326 4.73153 22.2875 4.57347 22.2811 4.3869L22.2297 2.89935L22.7803 2.88032L22.8287 4.28268C22.8339 4.43073 22.8785 4.54695 22.9626 4.63135C23.0468 4.71575 23.1547 4.75567 23.2866 4.75111C23.3677 4.74831 23.4456 4.72582 23.5203 4.68364C23.5949 4.64147 23.6553 4.5805 23.7012 4.50074C23.7482 4.41993 23.7696 4.3202 23.7655 4.20157ZM24.6984 5.19546L24.9682 2.87343L25.4913 2.93423L25.4454 3.32879L25.4727 3.33195C25.5365 3.20454 25.6287 3.11005 25.7492 3.04847C25.8699 2.98589 26.0078 2.96361 26.163 2.98165C26.3202 2.99993 26.4483 3.05363 26.5472 3.14276C26.6473 3.23099 26.7119 3.3432 26.741 3.47937L26.7652 3.48218C26.8316 3.35915 26.9302 3.26643 27.0611 3.20401C27.193 3.1407 27.3432 3.11882 27.5115 3.13838C27.7251 3.16322 27.8916 3.25101 28.011 3.40175C28.1303 3.5525 28.175 3.75738 28.1449 4.01639L27.9637 5.57499L27.4149 5.51121L27.5863 4.03726C27.603 3.89314 27.577 3.78337 27.5081 3.70795C27.4393 3.63153 27.3495 3.58687 27.2387 3.57399C27.1067 3.55864 26.9986 3.58796 26.9144 3.66193C26.8313 3.73501 26.7822 3.83706 26.7669 3.96808L26.5986 5.41633L26.0619 5.35395L26.2359 3.85733C26.2498 3.7374 26.2247 3.63744 26.1604 3.55745C26.0972 3.47757 26.0076 3.4309 25.8917 3.41743C25.8131 3.40829 25.7392 3.42013 25.67 3.45295C25.601 3.48476 25.5431 3.53472 25.4963 3.60283C25.4497 3.66994 25.4208 3.75136 25.4097 3.8471L25.2456 5.25907L24.6984 5.19546ZM29.272 5.99068C29.0468 5.92569 28.8659 5.82277 28.7291 5.68192C28.5936 5.54038 28.5069 5.37068 28.4689 5.17281C28.4313 4.97397 28.4464 4.75709 28.5142 4.52215C28.5809 4.29112 28.6832 4.10102 28.8213 3.95185C28.9607 3.80198 29.1239 3.70124 29.3109 3.64962C29.4982 3.59702 29.6991 3.60167 29.9136 3.66357C30.052 3.70352 30.1762 3.76364 30.286 3.84393C30.3972 3.92353 30.4867 4.02328 30.5545 4.14318C30.6233 4.26336 30.6643 4.40298 30.6775 4.56203C30.6911 4.72011 30.6694 4.89761 30.6126 5.09452L30.5657 5.25683L28.7248 4.7255L28.8277 4.36871L30.1613 4.7536C30.1896 4.65194 30.1937 4.55544 30.1736 4.4641C30.1538 4.37178 30.112 4.2916 30.0482 4.22356C29.9854 4.1558 29.9033 4.10729 29.8019 4.07803C29.6937 4.0468 29.591 4.04568 29.4939 4.07469C29.3972 4.10272 29.3136 4.15253 29.2433 4.22412C29.1743 4.29501 29.1248 4.38052 29.0948 4.48065L29.0049 4.7921C28.9672 4.92273 28.9588 5.04172 28.9795 5.14909C29.0006 5.25549 29.0468 5.34592 29.1182 5.4204C29.1899 5.4939 29.2833 5.54725 29.3983 5.58045C29.4754 5.60267 29.5482 5.61207 29.6167 5.60863C29.6856 5.60421 29.7491 5.58717 29.8073 5.5575C29.8655 5.52783 29.9154 5.48469 29.9571 5.42808L30.4353 5.62629C30.3664 5.74791 30.2741 5.84481 30.1582 5.91697C30.0436 5.98843 29.9108 6.03142 29.7598 6.04593C29.6091 6.05946 29.4465 6.04105 29.272 5.99068ZM30.5147 6.32875L31.3655 4.15139L31.863 4.34579L31.7212 4.70869L31.7439 4.71755C31.8327 4.60737 31.9386 4.53709 32.0616 4.50671C32.1859 4.47575 32.3104 4.48465 32.4351 4.53339C32.4635 4.54446 32.4946 4.55825 32.5285 4.57475C32.5636 4.59067 32.5921 4.60561 32.6139 4.61957L32.4294 5.09161C32.4107 5.07556 32.3788 5.05546 32.3337 5.03133C32.29 5.00662 32.2464 4.98578 32.2029 4.96879C32.1094 4.93224 32.0173 4.91969 31.9268 4.93116C31.8376 4.94205 31.7578 4.97462 31.6876 5.02889C31.6174 5.08315 31.5642 5.15658 31.528 5.2492L31.0279 6.52925L30.5147 6.32875ZM32.6639 7.2878L34.2227 4.5887L35.2349 5.17324C35.4422 5.29299 35.5938 5.43211 35.6898 5.59062C35.7866 5.74963 35.8319 5.91759 35.8258 6.09451C35.8211 6.27105 35.7693 6.44499 35.6704 6.61632C35.5704 6.7894 35.4451 6.92211 35.2946 7.01442C35.144 7.10673 34.9752 7.15045 34.7883 7.14556C34.6018 7.1398 34.4044 7.07679 34.1962 6.95653L33.5254 6.56912L33.7575 6.16716L34.3624 6.51651C34.4837 6.58654 34.5951 6.62279 34.6968 6.62527C34.7985 6.62774 34.8891 6.60274 34.9686 6.55025C35.049 6.49826 35.1169 6.42438 35.1722 6.32861C35.2275 6.23284 35.2573 6.13759 35.2616 6.04284C35.2669 5.94861 35.242 5.8587 35.1872 5.77313C35.1337 5.68718 35.0459 5.60894 34.9238 5.53841L34.4757 5.27963L33.1529 7.57018L32.6639 7.2878ZM34.8248 8.57436L36.2248 6.70224L36.6526 7.02215L36.4192 7.33417L36.4387 7.34875C36.5537 7.2662 36.6745 7.22667 36.8011 7.23014C36.9291 7.23341 37.0468 7.27514 37.1541 7.35535C37.1784 7.37358 37.2047 7.39515 37.233 7.42007C37.2626 7.44478 37.2861 7.46677 37.3034 7.48602L36.9999 7.89189C36.9861 7.87141 36.9607 7.84355 36.9237 7.80829C36.8881 7.77283 36.8516 7.74113 36.8143 7.71318C36.7338 7.65302 36.6484 7.61641 36.5581 7.60335C36.4692 7.59009 36.3837 7.60025 36.3016 7.63385C36.2194 7.66745 36.1486 7.72406 36.089 7.80369L35.266 8.90429L34.8248 8.57436ZM36.0019 9.47874L37.5266 7.7068L37.9443 8.06615L36.4195 9.83809L36.0019 9.47874ZM37.953 7.63598C37.8869 7.57907 37.8488 7.50818 37.8389 7.42331C37.8296 7.33767 37.8517 7.26371 37.9053 7.20141C37.9596 7.13835 38.0294 7.10541 38.1148 7.10261C38.2009 7.09903 38.277 7.1257 38.3431 7.18262C38.41 7.24019 38.4478 7.31147 38.4563 7.39644C38.4663 7.48131 38.4441 7.55528 38.3898 7.61834C38.3362 7.68063 38.2664 7.71357 38.1803 7.71714C38.0957 7.72061 38.0199 7.69356 37.953 7.63598ZM39.801 9.89636L37.5626 10.9674L37.1308 10.5382L38.1884 8.29341L38.605 8.70756L37.7618 10.3179L37.7791 10.335L39.3854 9.48329L39.801 9.89636ZM38.5821 12.1989C38.4895 12.0833 38.4267 11.9626 38.3936 11.837C38.362 11.7115 38.3654 11.5892 38.4038 11.47C38.4429 11.3516 38.5222 11.2445 38.6418 11.1487C38.7447 11.0663 38.845 11.0171 38.9428 11.0012C39.0406 10.9852 39.136 10.994 39.229 11.0273C39.322 11.0607 39.4118 11.1103 39.4984 11.1762C39.5864 11.2422 39.6707 11.3157 39.7512 11.3968C39.8479 11.4948 39.9273 11.5736 39.9893 11.6331C40.0521 11.692 40.105 11.7289 40.1481 11.7438C40.1927 11.7588 40.2355 11.7498 40.2767 11.7168L40.2838 11.7111C40.3733 11.6394 40.4213 11.5574 40.4279 11.465C40.4345 11.3726 40.3979 11.2766 40.3179 11.1768C40.2336 11.0715 40.1437 11.0063 40.0483 10.9814C39.9535 10.9572 39.8663 10.9595 39.7866 10.9882L39.522 10.5411C39.6582 10.4839 39.7927 10.462 39.9255 10.4752C40.0591 10.4878 40.1867 10.5318 40.3083 10.6073C40.4306 10.6822 40.5429 10.7833 40.645 10.9108C40.7154 10.9987 40.7752 11.0945 40.8244 11.1981C40.8736 11.3017 40.9033 11.4085 40.9136 11.5186C40.9246 11.6281 40.9071 11.737 40.8613 11.8452C40.816 11.9543 40.7328 12.0574 40.6117 12.1544L39.3907 13.1326L39.0595 12.7193L39.3101 12.5185L39.2987 12.5043C39.2271 12.5187 39.1501 12.52 39.0677 12.508C38.9867 12.4962 38.9042 12.4654 38.8202 12.4157C38.7376 12.3662 38.6583 12.2939 38.5821 12.1989ZM38.9875 12.0574C39.0567 12.1437 39.1336 12.2049 39.2184 12.241C39.304 12.2764 39.389 12.2883 39.4733 12.2767C39.5582 12.2658 39.6343 12.2335 39.7016 12.1795L39.9166 12.0073C39.8947 12.0027 39.866 11.988 39.8305 11.9632C39.7956 11.9391 39.7588 11.9101 39.7199 11.8762C39.6811 11.8424 39.6434 11.8082 39.6067 11.7739C39.5701 11.7395 39.5384 11.7097 39.5116 11.6843C39.4515 11.6272 39.3912 11.5812 39.3309 11.5464C39.2705 11.5116 39.2107 11.4938 39.1516 11.493C39.0933 11.4916 39.0364 11.5131 38.981 11.5576C38.9018 11.621 38.8652 11.6978 38.8711 11.7879C38.877 11.8781 38.9158 11.9679 38.9875 12.0574ZM40.0745 14.305C39.9512 14.1069 39.8887 13.9097 39.8872 13.7134C39.8863 13.518 39.9385 13.3342 40.0441 13.1621C40.1511 12.9903 40.3049 12.8419 40.5056 12.717C40.7071 12.5915 40.9091 12.5195 41.1115 12.501C41.3148 12.4819 41.5035 12.5162 41.6776 12.6038C41.8531 12.6918 42.0012 12.8326 42.1219 13.0264C42.2222 13.1875 42.2812 13.3485 42.299 13.5096C42.3182 13.6709 42.2971 13.8221 42.2355 13.9633C42.1749 14.1038 42.0763 14.2238 41.9397 14.3232L41.6614 13.8762C41.7457 13.7986 41.7985 13.7059 41.8199 13.5982C41.8427 13.4907 41.8189 13.3806 41.7486 13.2678C41.6891 13.1722 41.611 13.1043 41.5143 13.0642C41.4184 13.0235 41.31 13.0126 41.1892 13.0317C41.069 13.0516 40.9421 13.1031 40.8086 13.1863C40.6734 13.2705 40.5694 13.3627 40.4968 13.4629C40.425 13.5626 40.3851 13.6645 40.3771 13.7688C40.3705 13.8733 40.3974 13.9742 40.4581 14.0715C40.501 14.1404 40.5522 14.194 40.6119 14.2321C40.6729 14.2706 40.7399 14.2928 40.8129 14.2988C40.8859 14.3047 40.9625 14.2923 41.0425 14.2615L41.3209 14.7085C41.1735 14.7848 41.0233 14.8209 40.8703 14.817C40.7181 14.8126 40.5731 14.7678 40.4353 14.6827C40.2983 14.5971 40.178 14.4712 40.0745 14.305ZM40.0786 16.0233C40.0475 15.9549 40.0243 15.8891 40.009 15.8259C39.9931 15.764 39.9843 15.7128 39.9826 15.6723L40.4263 15.6112C40.4382 15.6938 40.4576 15.7635 40.4846 15.8204C40.5115 15.8772 40.5524 15.9194 40.6072 15.9468C40.6616 15.9757 40.7358 15.987 40.83 15.981L40.9646 15.9717L42.7864 14.2126L43.0282 14.7447L41.6438 15.9656L41.6539 15.9878L43.4847 15.7492L43.7271 16.2827L40.9539 16.5148C40.8232 16.5263 40.7027 16.5175 40.5926 16.4885C40.4815 16.4598 40.3831 16.4076 40.2973 16.3317C40.2111 16.2573 40.1382 16.1544 40.0786 16.0233ZM42.0182 18.6248L41.868 18.0411L45.16 18.3268L45.3337 19.0018L42.5892 20.843L42.4389 20.2593L44.6309 18.8355L44.6248 18.8119L42.0182 18.6248ZM43.2066 18.3393L43.6164 19.9311L43.1772 20.0441L42.7674 18.4523L43.2066 18.3393ZM42.6456 21.9613C42.619 21.7295 42.6471 21.5245 42.7298 21.3465C42.8127 21.1696 42.9387 21.0259 43.1078 20.9156C43.2781 20.8062 43.4806 20.7381 43.7155 20.7111C43.9514 20.6841 44.1647 20.7056 44.3555 20.7756C44.5474 20.8455 44.7032 20.9574 44.823 21.1111C44.9438 21.2658 45.0173 21.4565 45.0433 21.6833C45.0649 21.8718 45.0493 22.0426 44.9963 22.1957C44.9446 22.3497 44.8606 22.4773 44.7446 22.5785C44.6295 22.6795 44.489 22.7456 44.3231 22.7769L44.2631 22.2538C44.3726 22.2198 44.46 22.1587 44.5255 22.0705C44.5921 21.9832 44.6178 21.8735 44.6026 21.7415C44.5898 21.6296 44.5483 21.5348 44.4781 21.457C44.4089 21.3792 44.3157 21.323 44.1984 21.2884C44.0812 21.2549 43.9444 21.2471 43.7882 21.265C43.6299 21.2831 43.4965 21.3219 43.3879 21.3814C43.2803 21.4407 43.2006 21.5157 43.1487 21.6064C43.0979 21.698 43.0791 21.8008 43.0922 21.9147C43.1014 21.9953 43.1248 22.0657 43.1623 22.1257C43.201 22.1866 43.252 22.2354 43.3154 22.2721C43.3789 22.3087 43.4533 22.3303 43.5389 22.3368L43.5988 22.86C43.433 22.8657 43.2818 22.834 43.1452 22.7649C43.0096 22.6957 42.8978 22.5931 42.8097 22.4572C42.7226 22.3211 42.6679 22.1558 42.6456 21.9613ZM45.1623 24.3129L44.7363 24.3203L44.7127 22.9767L45.1388 22.9692L45.1623 24.3129ZM45.7046 23.2911L45.7142 23.842L43.52 23.8804C43.4459 23.8817 43.3893 23.8939 43.3501 23.9169C43.312 23.9409 43.2861 23.9718 43.2726 24.0096C43.259 24.0474 43.2527 24.0891 43.2535 24.1347C43.2541 24.1692 43.2572 24.2006 43.2627 24.229C43.2683 24.2583 43.2733 24.2805 43.2776 24.2957L42.8486 24.396C42.8379 24.3668 42.826 24.3249 42.8129 24.2703C42.7998 24.2168 42.7915 24.151 42.7881 24.0729C42.7817 23.935 42.8003 23.8103 42.844 23.699C42.8887 23.5876 42.9592 23.4986 43.0555 23.4319C43.1517 23.3663 43.2729 23.3327 43.419 23.3312L45.7046 23.2911Z" fill="white"/>
<circle cx="24.0006" cy="23.9996" r="16.2857" fill="white"/>
<path d="M17.4419 19.8297H15.9754C15.9486 19.6399 15.8939 19.4714 15.8113 19.3241C15.7287 19.1745 15.6227 19.0473 15.4932 18.9424C15.3638 18.8375 15.2142 18.7571 15.0446 18.7013C14.8771 18.6455 14.6952 18.6176 14.4988 18.6176C14.1439 18.6176 13.8347 18.7058 13.5713 18.8821C13.308 19.0562 13.1037 19.3107 12.9586 19.6455C12.8135 19.9781 12.741 20.3821 12.741 20.8576C12.741 21.3464 12.8135 21.7571 12.9586 22.0897C13.1059 22.4223 13.3113 22.6734 13.5747 22.8431C13.8381 23.0127 14.1428 23.0975 14.4888 23.0975C14.683 23.0975 14.8626 23.0718 15.0278 23.0205C15.1952 22.9692 15.3437 22.8944 15.4731 22.7962C15.6026 22.6957 15.7097 22.5741 15.7946 22.4312C15.8816 22.2884 15.9419 22.1254 15.9754 21.9424L17.4419 21.9491C17.4039 22.2638 17.3091 22.5674 17.1573 22.8598C17.0077 23.15 16.8057 23.41 16.5513 23.6399C16.299 23.8676 15.9977 24.0484 15.6472 24.1823C15.299 24.314 14.9051 24.3799 14.4653 24.3799C13.8537 24.3799 13.3068 24.2415 12.8247 23.9647C12.3448 23.6879 11.9653 23.2872 11.6863 22.7627C11.4095 22.2381 11.2711 21.6031 11.2711 20.8576C11.2711 20.1098 11.4117 19.4736 11.693 18.9491C11.9742 18.4245 12.3559 18.025 12.8381 17.7504C13.3202 17.4736 13.8626 17.3352 14.4653 17.3352C14.8626 17.3352 15.2309 17.391 15.5702 17.5027C15.9117 17.6143 16.2142 17.7772 16.4776 17.9915C16.741 18.2035 16.9553 18.4636 17.1205 18.7716C17.2879 19.0797 17.395 19.4323 17.4419 19.8297ZM24.296 19.8297H22.8295C22.8027 19.6399 22.748 19.4714 22.6654 19.3241C22.5828 19.1745 22.4768 19.0473 22.3473 18.9424C22.2179 18.8375 22.0683 18.7571 21.8987 18.7013C21.7313 18.6455 21.5494 18.6176 21.3529 18.6176C20.998 18.6176 20.6889 18.7058 20.4255 18.8821C20.1621 19.0562 19.9578 19.3107 19.8128 19.6455C19.6677 19.9781 19.5951 20.3821 19.5951 20.8576C19.5951 21.3464 19.6677 21.7571 19.8128 22.0897C19.9601 22.4223 20.1654 22.6734 20.4288 22.8431C20.6922 23.0127 20.9969 23.0975 21.3429 23.0975C21.5371 23.0975 21.7168 23.0718 21.8819 23.0205C22.0494 22.9692 22.1978 22.8944 22.3273 22.7962C22.4567 22.6957 22.5639 22.5741 22.6487 22.4312C22.7357 22.2884 22.796 22.1254 22.8295 21.9424L24.296 21.9491C24.2581 22.2638 24.1632 22.5674 24.0114 22.8598C23.8619 23.15 23.6598 23.41 23.4054 23.6399C23.1532 23.8676 22.8518 24.0484 22.5014 24.1823C22.1532 24.314 21.7592 24.3799 21.3194 24.3799C20.7078 24.3799 20.161 24.2415 19.6788 23.9647C19.1989 23.6879 18.8194 23.2872 18.5404 22.7627C18.2636 22.2381 18.1253 21.6031 18.1253 20.8576C18.1253 20.1098 18.2659 19.4736 18.5471 18.9491C18.8284 18.4245 19.2101 18.025 19.6922 17.7504C20.1744 17.4736 20.7168 17.3352 21.3194 17.3352C21.7168 17.3352 22.0851 17.391 22.4244 17.5027C22.7659 17.6143 23.0683 17.7772 23.3317 17.9915C23.5951 18.2035 23.8094 18.4636 23.9746 18.7716C24.142 19.0797 24.2491 19.4323 24.296 19.8297ZM25.0999 24.2861V17.429H27.8053C28.3254 17.429 28.7684 17.5283 29.1345 17.727C29.5006 17.9234 29.7796 18.1968 29.9716 18.5473C30.1658 18.8955 30.2629 19.2973 30.2629 19.7527C30.2629 20.208 30.1646 20.6098 29.9682 20.958C29.7718 21.3062 29.4872 21.5774 29.1144 21.7716C28.7439 21.9658 28.2952 22.0629 27.7684 22.0629H26.0441V20.9011H27.5341C27.8131 20.9011 28.043 20.8531 28.2238 20.7571C28.4068 20.6589 28.543 20.5239 28.6323 20.352C28.7238 20.1779 28.7696 19.9781 28.7696 19.7527C28.7696 19.525 28.7238 19.3263 28.6323 19.1567C28.543 18.9848 28.4068 18.852 28.2238 18.7582C28.0408 18.6622 27.8086 18.6143 27.5274 18.6143H26.5497V24.2861H25.0999ZM31.3589 24.2861H29.8053L32.1725 17.429H34.0408L36.4047 24.2861H34.8511L33.1335 18.996H33.0799L31.3589 24.2861ZM31.2618 21.5908H34.9314V22.7225H31.2618V21.5908Z" fill="#1C1D22"/>
<path d="M14.5303 29.3254H14.0555C14.0372 29.224 14.0032 29.1347 13.9535 29.0576C13.9038 28.9805 13.8429 28.915 13.7709 28.8612C13.6988 28.8075 13.6182 28.7669 13.5289 28.7395C13.4406 28.7121 13.3467 28.6984 13.2473 28.6984C13.0677 28.6984 12.9069 28.7435 12.7649 28.8338C12.6238 28.9241 12.5122 29.0566 12.43 29.2311C12.3489 29.4056 12.3083 29.6186 12.3083 29.8703C12.3083 30.1239 12.3489 30.338 12.43 30.5125C12.5122 30.687 12.6243 30.8189 12.7664 30.9082C12.9084 30.9975 13.0682 31.0421 13.2458 31.0421C13.3442 31.0421 13.4376 31.029 13.5258 31.0026C13.6151 30.9752 13.6958 30.9351 13.7678 30.8823C13.8398 30.8296 13.9007 30.7652 13.9504 30.6891C14.0012 30.6119 14.0362 30.5237 14.0555 30.4242L14.5303 30.4258C14.5049 30.579 14.4557 30.72 14.3827 30.8489C14.3106 30.9767 14.2178 31.0873 14.1042 31.1806C13.9915 31.273 13.8627 31.3445 13.7176 31.3952C13.5725 31.446 13.4142 31.4713 13.2427 31.4713C12.9729 31.4713 12.7324 31.4074 12.5214 31.2796C12.3103 31.1507 12.1439 30.9666 12.0222 30.7271C11.9014 30.4877 11.8411 30.202 11.8411 29.8703C11.8411 29.5375 11.9019 29.2519 12.0237 29.0134C12.1454 28.774 12.3118 28.5903 12.5229 28.4625C12.7339 28.3336 12.9739 28.2692 13.2427 28.2692C13.4081 28.2692 13.5624 28.2931 13.7054 28.3407C13.8495 28.3874 13.9788 28.4564 14.0935 28.5477C14.2082 28.638 14.303 28.7486 14.3781 28.8795C14.4532 29.0094 14.5039 29.158 14.5303 29.3254ZM17.7362 29.8703C17.7362 30.2031 17.6753 30.4892 17.5536 30.7286C17.4318 30.9671 17.2649 31.1507 17.0529 31.2796C16.8418 31.4074 16.6019 31.4713 16.333 31.4713C16.0631 31.4713 15.8222 31.4074 15.6101 31.2796C15.3991 31.1507 15.2327 30.9666 15.1109 30.7271C14.9892 30.4877 14.9283 30.202 14.9283 29.8703C14.9283 29.5375 14.9892 29.2519 15.1109 29.0134C15.2327 28.774 15.3991 28.5903 15.6101 28.4625C15.8222 28.3336 16.0631 28.2692 16.333 28.2692C16.6019 28.2692 16.8418 28.3336 17.0529 28.4625C17.2649 28.5903 17.4318 28.774 17.5536 29.0134C17.6753 29.2519 17.7362 29.5375 17.7362 29.8703ZM17.2705 29.8703C17.2705 29.6166 17.2294 29.403 17.1472 29.2295C17.0661 29.055 16.9545 28.9231 16.8124 28.8338C16.6714 28.7435 16.5116 28.6984 16.333 28.6984C16.1534 28.6984 15.9931 28.7435 15.8521 28.8338C15.7111 28.9231 15.5995 29.055 15.5173 29.2295C15.4361 29.403 15.3955 29.6166 15.3955 29.8703C15.3955 30.1239 15.4361 30.338 15.5173 30.5125C15.5995 30.686 15.7111 30.8179 15.8521 30.9082C15.9931 30.9975 16.1534 31.0421 16.333 31.0421C16.5116 31.0421 16.6714 30.9975 16.8124 30.9082C16.9545 30.8179 17.0661 30.686 17.1472 30.5125C17.2294 30.338 17.2705 30.1239 17.2705 29.8703ZM18.2583 28.3118H18.829L19.8213 30.7347H19.8578L20.8501 28.3118H21.4208V31.4287H20.9733V29.1732H20.9444L20.0252 31.4241H19.6538L18.7346 29.1717H18.7057V31.4287H18.2583V28.3118ZM22.0402 31.4287V28.3118H23.1512C23.3937 28.3118 23.5946 28.356 23.7539 28.4442C23.9132 28.5325 24.0324 28.6532 24.1116 28.8065C24.1907 28.9586 24.2303 29.1301 24.2303 29.3209C24.2303 29.5126 24.1902 29.6851 24.11 29.8383C24.0309 29.9905 23.9112 30.1112 23.7509 30.2005C23.5916 30.2888 23.3912 30.3329 23.1497 30.3329H22.3857V29.9342H23.1071C23.2603 29.9342 23.3846 29.9078 23.48 29.8551C23.5753 29.8013 23.6453 29.7282 23.69 29.6359C23.7346 29.5436 23.7569 29.4386 23.7569 29.3209C23.7569 29.2032 23.7346 29.0987 23.69 29.0073C23.6453 28.916 23.5748 28.8445 23.4784 28.7928C23.3831 28.741 23.2573 28.7151 23.101 28.7151H22.5105V31.4287H22.0402ZM24.7173 31.4287V28.3118H25.1876V31.0239H26.5999V31.4287H24.7173ZM27.5424 28.3118V31.4287H27.0721V28.3118H27.5424ZM28.4262 31.4287H27.927L29.0487 28.3118H29.592L30.7137 31.4287H30.2145L29.3333 28.878H29.3089L28.4262 31.4287ZM28.5099 30.2081H30.1293V30.6038H28.5099V30.2081ZM33.6152 28.3118V31.4287H33.183L31.5987 29.1428H31.5698V31.4287H31.0995V28.3118H31.5348L33.1206 30.6008H33.1495V28.3118H33.6152ZM34.0832 28.7167V28.3118H36.4955V28.7167H35.523V31.4287H35.0542V28.7167H34.0832Z" fill="#1C1D22"/>
<defs>
<clipPath id="clip0_5159_8091">
<rect width="5.14286" height="5.14286" fill="white" transform="translate(21.4277 41.5703)"/>
</clipPath>
</defs>
</svg>
