<svg width="48" height="48" viewBox="0 0 48 48" fill="none" xmlns="http://www.w3.org/2000/svg">
<path d="M22.7216 1.43097C23.4031 0.668082 24.5969 0.668082 25.2784 1.43097L26.2966 2.57062C26.8392 3.17796 27.7342 3.31972 28.4379 2.90977L29.7584 2.14053C30.6423 1.62559 31.7776 1.99447 32.1901 2.93063L32.8062 4.32912C33.1346 5.07442 33.942 5.48581 34.7379 5.31338L36.2315 4.98984C37.2313 4.77326 38.197 5.47491 38.3 6.4927L38.4538 8.01315C38.5358 8.82343 39.1766 9.46419 39.9868 9.54617L41.5073 9.7C42.5251 9.80298 43.2267 10.7687 43.0102 11.7685L42.6866 13.2621C42.5142 14.058 42.9256 14.8654 43.6709 15.1938L45.0694 15.8099C46.0055 16.2224 46.3744 17.3577 45.8595 18.2416L45.0902 19.5621C44.6803 20.2658 44.822 21.1608 45.4294 21.7034L46.569 22.7216C47.3319 23.4031 47.3319 24.5969 46.569 25.2784L45.4294 26.2966C44.822 26.8392 44.6803 27.7342 45.0902 28.4379L45.8595 29.7584C46.3744 30.6423 46.0055 31.7776 45.0694 32.1901L43.6709 32.8062C42.9256 33.1346 42.5142 33.942 42.6866 34.7379L43.0102 36.2315C43.2267 37.2313 42.5251 38.197 41.5073 38.3L39.9868 38.4538C39.1766 38.5358 38.5358 39.1766 38.4538 39.9868L38.3 41.5073C38.197 42.5251 37.2313 43.2267 36.2315 43.0102L34.7379 42.6866C33.942 42.5142 33.1346 42.9256 32.8062 43.6709L32.1901 45.0694C31.7776 46.0055 30.6423 46.3744 29.7584 45.8595L28.4379 45.0902C27.7342 44.6803 26.8392 44.822 26.2966 45.4294L25.2784 46.569C24.5969 47.3319 23.4031 47.3319 22.7216 46.569L21.7034 45.4294C21.1608 44.822 20.2658 44.6803 19.5621 45.0902L18.2416 45.8595C17.3577 46.3744 16.2224 46.0055 15.8099 45.0694L15.1938 43.6709C14.8654 42.9256 14.058 42.5142 13.2621 42.6866L11.7685 43.0102C10.7687 43.2267 9.80298 42.5251 9.7 41.5073L9.54617 39.9868C9.46419 39.1766 8.82343 38.5358 8.01315 38.4538L6.4927 38.3C5.4749 38.197 4.77326 37.2313 4.98984 36.2315L5.31338 34.7379C5.48581 33.942 5.07441 33.1346 4.32912 32.8062L2.93063 32.1901C1.99447 31.7776 1.62559 30.6423 2.14053 29.7584L2.90977 28.4379C3.31972 27.7342 3.17796 26.8392 2.57062 26.2966L1.43097 25.2784C0.668082 24.5969 0.668082 23.4031 1.43097 22.7216L2.57062 21.7034C3.17796 21.1608 3.31972 20.2658 2.90977 19.5621L2.14053 18.2416C1.62559 17.3577 1.99447 16.2224 2.93063 15.8099L4.32912 15.1938C5.07442 14.8654 5.48581 14.058 5.31338 13.2621L4.98984 11.7685C4.77326 10.7687 5.47491 9.80298 6.4927 9.7L8.01315 9.54617C8.82343 9.46419 9.46419 8.82343 9.54617 8.01315L9.7 6.4927C9.80298 5.4749 10.7687 4.77326 11.7685 4.98984L13.2621 5.31338C14.058 5.48581 14.8654 5.07442 15.1938 4.32912L15.8099 2.93063C16.2224 1.99447 17.3577 1.62559 18.2416 2.14053L19.5621 2.90977C20.2658 3.31972 21.1608 3.17796 21.7034 2.57062L22.7216 1.43097Z" fill="#3C82FB"/>
<circle cx="23.9994" cy="24.0004" r="19.7143" fill="white"/>
<circle cx="24.0003" cy="24.0003" r="17.1429" fill="#3C82FB"/>
<path d="M17.429 33.0754V32.7405H19.7666V33.0754H18.7865V35.8574H18.4091V33.0754H17.429ZM19.9956 32.7405H20.4278L21.2922 34.1955H21.3288L22.1932 32.7405H22.6254L21.4992 34.5729V35.8574H21.1218V34.5729L19.9956 32.7405ZM23.0279 35.8574V32.7405H24.081C24.3256 32.7405 24.5254 32.7847 24.6807 32.8729C24.8369 32.9602 24.9526 33.0784 25.0277 33.2276C25.1028 33.3767 25.1403 33.5431 25.1403 33.7267C25.1403 33.9104 25.1028 34.0773 25.0277 34.2275C24.9536 34.3776 24.839 34.4973 24.6837 34.5866C24.5285 34.6749 24.3296 34.719 24.0871 34.719H23.3323V34.3842H24.075C24.2424 34.3842 24.3768 34.3553 24.4783 34.2975C24.5797 34.2396 24.6533 34.1615 24.6989 34.0631C24.7456 33.9637 24.769 33.8515 24.769 33.7267C24.769 33.6019 24.7456 33.4903 24.6989 33.3919C24.6533 33.2935 24.5792 33.2164 24.4767 33.1606C24.3743 33.1038 24.2383 33.0754 24.0689 33.0754H23.4053V35.8574H23.0279ZM25.6626 35.8574V32.7405H27.5437V33.0754H26.04V34.1285H27.4463V34.4633H26.04V35.5226H27.568V35.8574H25.6626ZM29.6353 32.7405V35.8574H29.2579V32.7405H29.6353ZM30.6838 32.7405V35.8574H30.3064V32.7405H30.6838Z" fill="white"/>
<path d="M17.2816 24.8126C17.2589 24.6 17.1631 24.4344 16.9943 24.3159C16.8271 24.1974 16.6096 24.1381 16.3417 24.1381C16.1534 24.1381 15.9919 24.1665 15.8571 24.2234C15.7224 24.2802 15.6193 24.3573 15.5479 24.4547C15.4764 24.5521 15.4399 24.6633 15.4383 24.7883C15.4383 24.8922 15.4618 24.9823 15.5089 25.0586C15.5576 25.1349 15.6234 25.1998 15.7062 25.2534C15.7889 25.3053 15.8807 25.3492 15.9813 25.3849C16.082 25.4206 16.1834 25.4506 16.2857 25.475L16.7532 25.5919C16.9415 25.6357 17.1226 25.6949 17.2963 25.7696C17.4716 25.8443 17.6282 25.9385 17.7662 26.0521C17.9058 26.1657 18.0162 26.3029 18.0974 26.4636C18.1786 26.6243 18.2191 26.8126 18.2191 27.0285C18.2191 27.3208 18.1445 27.5781 17.9951 27.8005C17.8458 28.0212 17.6299 28.1941 17.3474 28.3191C17.0665 28.4425 16.7264 28.5042 16.3271 28.5042C15.9391 28.5042 15.6023 28.4441 15.3165 28.324C15.0325 28.2039 14.8101 28.0285 14.6493 27.798C14.4902 27.5675 14.4042 27.2867 14.3912 26.9555H15.28C15.293 27.1292 15.3466 27.2737 15.4407 27.3889C15.5349 27.5042 15.6575 27.5902 15.8084 27.6471C15.961 27.7039 16.1315 27.7323 16.3198 27.7323C16.5162 27.7323 16.6883 27.7031 16.836 27.6446C16.9854 27.5846 17.1023 27.5018 17.1867 27.3962C17.2711 27.2891 17.3141 27.1641 17.3157 27.0212C17.3141 26.8914 17.276 26.7842 17.2013 26.6998C17.1266 26.6138 17.0219 26.5423 16.8872 26.4855C16.754 26.4271 16.5982 26.3751 16.4196 26.3297L15.8523 26.1836C15.4415 26.0781 15.1169 25.9182 14.8782 25.7039C14.6412 25.488 14.5227 25.2014 14.5227 24.8443C14.5227 24.5505 14.6023 24.2932 14.7613 24.0724C14.9221 23.8516 15.1404 23.6803 15.4164 23.5586C15.6924 23.4352 16.0049 23.3735 16.3539 23.3735C16.7078 23.3735 17.0178 23.4352 17.2841 23.5586C17.5519 23.6803 17.7622 23.85 17.9148 24.0675C18.0674 24.2834 18.1461 24.5318 18.151 24.8126H17.2816ZM23.3436 25.9352C23.3436 26.4725 23.2429 26.9328 23.0416 27.3159C22.8419 27.6974 22.5692 27.9896 22.2234 28.1925C21.8793 28.3954 21.4889 28.4969 21.0522 28.4969C20.6155 28.4969 20.2242 28.3954 19.8785 28.1925C19.5343 27.988 19.2616 27.6949 19.0603 27.3135C18.8606 26.9303 18.7608 26.4709 18.7608 25.9352C18.7608 25.3979 18.8606 24.9385 19.0603 24.557C19.2616 24.1738 19.5343 23.8808 19.8785 23.6779C20.2242 23.475 20.6155 23.3735 21.0522 23.3735C21.4889 23.3735 21.8793 23.475 22.2234 23.6779C22.5692 23.8808 22.8419 24.1738 23.0416 24.557C23.2429 24.9385 23.3436 25.3979 23.3436 25.9352ZM22.4353 25.9352C22.4353 25.557 22.376 25.238 22.2575 24.9782C22.1406 24.7169 21.9783 24.5196 21.7705 24.3865C21.5627 24.2518 21.3233 24.1844 21.0522 24.1844C20.7811 24.1844 20.5416 24.2518 20.3338 24.3865C20.126 24.5196 19.9629 24.7169 19.8444 24.9782C19.7275 25.238 19.6691 25.557 19.6691 25.9352C19.6691 26.3135 19.7275 26.6333 19.8444 26.8946C19.9629 27.1544 20.126 27.3516 20.3338 27.4863C20.5416 27.6195 20.7811 27.686 21.0522 27.686C21.3233 27.686 21.5627 27.6195 21.7705 27.4863C21.9783 27.3516 22.1406 27.1544 22.2575 26.8946C22.376 26.6333 22.4353 26.3135 22.4353 25.9352ZM28.3292 25.1243H27.4185C27.3925 24.975 27.3446 24.8427 27.2748 24.7274C27.205 24.6105 27.1182 24.5115 27.0143 24.4303C26.9104 24.3492 26.7919 24.2883 26.6587 24.2477C26.5272 24.2055 26.3852 24.1844 26.2326 24.1844C25.9615 24.1844 25.7212 24.2526 25.5118 24.3889C25.3024 24.5237 25.1384 24.7217 25.0199 24.9831C24.9014 25.2428 24.8422 25.5602 24.8422 25.9352C24.8422 26.3167 24.9014 26.6381 25.0199 26.8995C25.1401 27.1592 25.304 27.3557 25.5118 27.4888C25.7212 27.6203 25.9607 27.686 26.2302 27.686C26.3795 27.686 26.5191 27.6665 26.649 27.6276C26.7805 27.587 26.8982 27.5277 27.0021 27.4498C27.1076 27.3719 27.1961 27.2761 27.2675 27.1625C27.3406 27.0488 27.3909 26.919 27.4185 26.7729L28.3292 26.7777C28.2951 27.0147 28.2212 27.2372 28.1076 27.4449C27.9956 27.6527 27.8487 27.8362 27.6669 27.9953C27.485 28.1527 27.2724 28.2761 27.0289 28.3654C26.7854 28.4531 26.5151 28.4969 26.218 28.4969C25.7797 28.4969 25.3884 28.3954 25.0443 28.1925C24.7001 27.9896 24.429 27.6966 24.231 27.3135C24.0329 26.9303 23.9339 26.4709 23.9339 25.9352C23.9339 25.3979 24.0337 24.9385 24.2334 24.557C24.4331 24.1738 24.705 23.8808 25.0492 23.6779C25.3933 23.475 25.7829 23.3735 26.218 23.3735C26.4956 23.3735 26.7537 23.4125 26.9923 23.4904C27.231 23.5683 27.4436 23.6828 27.6303 23.8337C27.817 23.9831 27.9704 24.1665 28.0906 24.3841C28.2123 24.6 28.2919 24.8467 28.3292 25.1243ZM30.5344 28.4287V27.7761L32.2657 26.0789C32.4313 25.9117 32.5693 25.7631 32.6797 25.6333C32.7901 25.5034 32.8729 25.3776 32.9281 25.2558C32.9833 25.1341 33.0109 25.0042 33.0109 24.8662C33.0109 24.7087 32.9752 24.574 32.9037 24.462C32.8323 24.3484 32.7341 24.2607 32.6091 24.199C32.4841 24.1373 32.342 24.1065 32.1829 24.1065C32.019 24.1065 31.8753 24.1406 31.7519 24.2087C31.6286 24.2753 31.5328 24.3703 31.4646 24.4936C31.398 24.617 31.3648 24.7639 31.3648 24.9344H30.5052C30.5052 24.6178 30.5774 24.3427 30.7219 24.1089C30.8664 23.8751 31.0653 23.6941 31.3185 23.5659C31.5734 23.4376 31.8656 23.3735 32.1951 23.3735C32.5295 23.3735 32.8234 23.436 33.0766 23.561C33.3299 23.686 33.5263 23.8573 33.6659 24.0748C33.8071 24.2923 33.8778 24.5407 33.8778 24.8199C33.8778 25.0066 33.842 25.1901 33.7706 25.3703C33.6992 25.5505 33.5734 25.7501 33.3932 25.9693C33.2146 26.1885 32.9638 26.4539 32.6407 26.7656L31.7812 27.6397V27.6738H33.9532V28.4287H30.5344Z" fill="white"/>
<path d="M15.6974 19H15.0643L16.8955 14.013H17.5188L19.35 19H18.7169L17.2266 14.8019H17.1877L15.6974 19ZM15.9312 17.0519H18.4831V17.5877H15.9312V17.0519ZM20.5935 14.013V19H19.9896V14.013H20.5935ZM25.6802 15.5714H25.0763C25.0406 15.3977 24.9781 15.2451 24.8888 15.1136C24.8012 14.9821 24.694 14.8718 24.5674 14.7825C24.4424 14.6916 24.3036 14.6234 24.151 14.5779C23.9984 14.5325 23.8393 14.5097 23.6737 14.5097C23.3718 14.5097 23.0982 14.586 22.8531 14.7386C22.6096 14.8912 22.4156 15.1161 22.2711 15.4131C22.1283 15.7102 22.0568 16.0747 22.0568 16.5065C22.0568 16.9383 22.1283 17.3028 22.2711 17.5998C22.4156 17.8969 22.6096 18.1218 22.8531 18.2744C23.0982 18.4269 23.3718 18.5032 23.6737 18.5032C23.8393 18.5032 23.9984 18.4805 24.151 18.4351C24.3036 18.3896 24.4424 18.3222 24.5674 18.233C24.694 18.142 24.8012 18.0308 24.8888 17.8994C24.9781 17.7662 25.0406 17.6136 25.0763 17.4416H25.6802C25.6348 17.6964 25.552 17.9245 25.4318 18.1258C25.3117 18.3271 25.1624 18.4984 24.9838 18.6396C24.8052 18.7792 24.6047 18.8856 24.3823 18.9586C24.1616 19.0317 23.9253 19.0682 23.6737 19.0682C23.2484 19.0682 22.8702 18.9643 22.539 18.7565C22.2078 18.5487 21.9473 18.2532 21.7573 17.8701C21.5674 17.487 21.4724 17.0325 21.4724 16.5065C21.4724 15.9805 21.5674 15.526 21.7573 15.1429C21.9473 14.7597 22.2078 14.4643 22.539 14.2565C22.8702 14.0487 23.2484 13.9448 23.6737 13.9448C23.9253 13.9448 24.1616 13.9813 24.3823 14.0544C24.6047 14.1274 24.8052 14.2346 24.9838 14.3758C25.1624 14.5154 25.3117 14.6859 25.4318 14.8872C25.552 15.0869 25.6348 15.3149 25.6802 15.5714ZM26.5189 19V14.013H28.204C28.5952 14.013 28.915 14.0836 29.1634 14.2248C29.4134 14.3644 29.5985 14.5536 29.7186 14.7922C29.8387 15.0308 29.8988 15.2971 29.8988 15.5909C29.8988 15.8847 29.8387 16.1518 29.7186 16.392C29.6001 16.6323 29.4167 16.8239 29.1683 16.9667C28.9199 17.108 28.6017 17.1786 28.2137 17.1786H27.0059V16.6429H28.1943C28.4621 16.6429 28.6772 16.5966 28.8395 16.5041C29.0019 16.4115 29.1196 16.2865 29.1926 16.1291C29.2673 15.97 29.3046 15.7906 29.3046 15.5909C29.3046 15.3912 29.2673 15.2127 29.1926 15.0552C29.1196 14.8977 29.0011 14.7744 28.8371 14.6851C28.6732 14.5942 28.4556 14.5487 28.1845 14.5487H27.1228V19H26.5189ZM30.4301 19H29.797L31.6281 14.013H32.2515L34.0827 19H33.4496L31.9593 14.8019H31.9203L30.4301 19ZM30.6638 17.0519H33.2158V17.5877H30.6638V17.0519Z" fill="white"/>
<line x1="14.5723" y1="21.2144" x2="34.2865" y2="21.2144" stroke="white" stroke-width="0.428571"/>
</svg>
