<svg width="138" height="148" viewBox="0 0 138 148" fill="none" xmlns="http://www.w3.org/2000/svg">
<g filter="url(#filter0_dd_4948_66786)">
<mask id="path-1-outside-1_4948_66786" maskUnits="userSpaceOnUse" x="10.8467" y="3.30078" width="111" height="129" fill="black">
<rect fill="white" x="10.8467" y="3.30078" width="111" height="129"/>
<path d="M59.6052 9.31868C59.947 9.21106 60.2033 9.61164 59.9997 9.90657C45.8611 30.3915 57.9982 36.3848 61.5339 34.5853C65.1193 32.7603 62.2859 27.9367 59.5066 24.8587C57.6458 22.7977 58.2394 20.66 59.6999 18.5384C59.9071 18.2381 60.3769 18.3922 60.4148 18.7552C60.6368 20.8842 61.6481 23.4914 65.4011 25.9935C74.1368 32.4257 67.084 39.7039 65.7087 41.721C64.3334 43.7383 60.0624 49.4566 64.3435 50.223C67.1795 50.7305 67.5065 48.1955 67.2253 46.179C67.1738 45.8097 67.6071 45.5527 67.8581 45.8284C72.037 50.4181 64.5153 55.6876 66.2136 59.4017C70.6077 66.5049 77.6815 58.5934 75.404 54.472C73.1266 50.3506 72.4103 43.7219 78.9656 40.5199C87.4438 36.7206 88.8103 30.388 88.3415 26.6605C88.2925 26.2681 88.81 25.9787 89.0837 26.264C97.6456 35.2068 92.8467 42.514 89.155 45.4242C85.3221 48.4454 83.1328 53.8014 88.032 55.1722C92.7973 56.0651 93.8213 52.7225 93.7195 50.1185C93.7046 49.733 94.1836 49.5179 94.3943 49.8411C97.5621 54.7033 91.8807 59.8251 95.1218 60.6898C101.196 61.8584 101.835 56.2612 101.255 53.5443C100.801 51.8313 100.753 50.2078 100.881 48.8636C100.924 48.4107 101.5 48.4956 101.551 48.9476C101.639 49.7511 101.812 50.6168 102.111 51.4613C105.383 59.1868 102.738 63.0561 101.85 64.3304C100.963 65.6045 94.4634 72.9258 99.1726 74.8392C100.95 75.5613 102.07 74.8599 102.751 73.6419C102.983 73.2278 104.279 73.2876 104.311 73.7611C104.444 75.6984 104.425 77.5373 104.272 79.2816C106.518 78.7767 109.247 77.2259 111.913 73.6107C112.742 72.1774 113.167 70.4884 113.381 69.5247C113.594 68.5613 115.966 67.8186 116.205 70.0423C116.444 72.2668 115.477 74.9651 108.911 80.8079C106.984 82.2427 105.337 83.9231 104.197 85.7435C104.832 91.5933 104.529 93.5169 102.561 95.4613C100.588 97.4829 96.7601 99.8096 91.7702 101.984C96.341 106.178 99.9953 108.91 100.231 109.099C100.735 109.503 111.512 117.919 111.802 122.803C111.369 129.782 101.306 126.558 85.822 120.519C78.3535 117.182 72.0701 113.161 66.8122 108.828C59.1807 109.843 51.2699 109.9 44.0261 108.368C25.945 104.542 18.3835 95.0452 16.863 90.7747C16.8007 89.9985 16.883 88.3321 17.7107 87.8734C19.06 87.267 18.8116 86.5092 29.0574 89.4241C20.6949 75.2294 26.6068 57.7256 28.574 54.8411C30.6194 51.8423 29.4736 47.4114 28.241 44.6468C28.0763 44.2775 28.4445 43.977 28.7048 44.2865C30.8115 46.7907 31.4909 51.3736 30.9831 53.3831C30.39 55.7299 28.9916 59.4521 31.1013 62.8831C34.7182 67.5362 39.7639 64.5846 36.3747 58.7826C33.9962 54.7103 36.8346 51.0934 39.1687 49.2913C39.4601 49.0664 39.8281 49.3702 39.7078 49.7181C36.8944 57.854 41.2689 57.54 42.2224 56.599C43.2154 55.6181 44.5911 54.8064 42.1648 47.8783C40.5427 43.2463 42.4208 40.354 44.1189 39.0423C44.4092 38.8181 44.7421 39.1335 44.613 39.4769C42.834 44.2073 48.1199 43.6687 48.6667 39.5433C49.2502 35.1403 44.2153 30.6847 44.5456 26.5853C45.0903 16.3214 54.2512 11.0045 59.6052 9.31868Z"/>
</mask>
<path d="M59.6052 9.31868C59.947 9.21106 60.2033 9.61164 59.9997 9.90657C45.8611 30.3915 57.9982 36.3848 61.5339 34.5853C65.1193 32.7603 62.2859 27.9367 59.5066 24.8587C57.6458 22.7977 58.2394 20.66 59.6999 18.5384C59.9071 18.2381 60.3769 18.3922 60.4148 18.7552C60.6368 20.8842 61.6481 23.4914 65.4011 25.9935C74.1368 32.4257 67.084 39.7039 65.7087 41.721C64.3334 43.7383 60.0624 49.4566 64.3435 50.223C67.1795 50.7305 67.5065 48.1955 67.2253 46.179C67.1738 45.8097 67.6071 45.5527 67.8581 45.8284C72.037 50.4181 64.5153 55.6876 66.2136 59.4017C70.6077 66.5049 77.6815 58.5934 75.404 54.472C73.1266 50.3506 72.4103 43.7219 78.9656 40.5199C87.4438 36.7206 88.8103 30.388 88.3415 26.6605C88.2925 26.2681 88.81 25.9787 89.0837 26.264C97.6456 35.2068 92.8467 42.514 89.155 45.4242C85.3221 48.4454 83.1328 53.8014 88.032 55.1722C92.7973 56.0651 93.8213 52.7225 93.7195 50.1185C93.7046 49.733 94.1836 49.5179 94.3943 49.8411C97.5621 54.7033 91.8807 59.8251 95.1218 60.6898C101.196 61.8584 101.835 56.2612 101.255 53.5443C100.801 51.8313 100.753 50.2078 100.881 48.8636C100.924 48.4107 101.5 48.4956 101.551 48.9476C101.639 49.7511 101.812 50.6168 102.111 51.4613C105.383 59.1868 102.738 63.0561 101.85 64.3304C100.963 65.6045 94.4634 72.9258 99.1726 74.8392C100.95 75.5613 102.07 74.8599 102.751 73.6419C102.983 73.2278 104.279 73.2876 104.311 73.7611C104.444 75.6984 104.425 77.5373 104.272 79.2816C106.518 78.7767 109.247 77.2259 111.913 73.6107C112.742 72.1774 113.167 70.4884 113.381 69.5247C113.594 68.5613 115.966 67.8186 116.205 70.0423C116.444 72.2668 115.477 74.9651 108.911 80.8079C106.984 82.2427 105.337 83.9231 104.197 85.7435C104.832 91.5933 104.529 93.5169 102.561 95.4613C100.588 97.4829 96.7601 99.8096 91.7702 101.984C96.341 106.178 99.9953 108.91 100.231 109.099C100.735 109.503 111.512 117.919 111.802 122.803C111.369 129.782 101.306 126.558 85.822 120.519C78.3535 117.182 72.0701 113.161 66.8122 108.828C59.1807 109.843 51.2699 109.9 44.0261 108.368C25.945 104.542 18.3835 95.0452 16.863 90.7747C16.8007 89.9985 16.883 88.3321 17.7107 87.8734C19.06 87.267 18.8116 86.5092 29.0574 89.4241C20.6949 75.2294 26.6068 57.7256 28.574 54.8411C30.6194 51.8423 29.4736 47.4114 28.241 44.6468C28.0763 44.2775 28.4445 43.977 28.7048 44.2865C30.8115 46.7907 31.4909 51.3736 30.9831 53.3831C30.39 55.7299 28.9916 59.4521 31.1013 62.8831C34.7182 67.5362 39.7639 64.5846 36.3747 58.7826C33.9962 54.7103 36.8346 51.0934 39.1687 49.2913C39.4601 49.0664 39.8281 49.3702 39.7078 49.7181C36.8944 57.854 41.2689 57.54 42.2224 56.599C43.2154 55.6181 44.5911 54.8064 42.1648 47.8783C40.5427 43.2463 42.4208 40.354 44.1189 39.0423C44.4092 38.8181 44.7421 39.1335 44.613 39.4769C42.834 44.2073 48.1199 43.6687 48.6667 39.5433C49.2502 35.1403 44.2153 30.6847 44.5456 26.5853C45.0903 16.3214 54.2512 11.0045 59.6052 9.31868Z" fill="#119767"/>
<path d="M59.6052 9.31868L58.0949 4.52175L58.0948 4.52179L59.6052 9.31868ZM59.9997 9.90657L55.8608 7.04987L55.8608 7.04988L59.9997 9.90657ZM61.5339 34.5853L63.815 39.0673L63.8153 39.0671L61.5339 34.5853ZM59.5066 24.8587L55.7738 28.2288L55.774 28.2291L59.5066 24.8587ZM59.6999 18.5384L55.5605 15.6825L55.5575 15.6868L59.6999 18.5384ZM60.4148 18.7552L55.4128 19.2767L55.4128 19.2769L60.4148 18.7552ZM65.4011 25.9935L68.383 21.9438L68.2885 21.8742L68.1908 21.8091L65.4011 25.9935ZM65.7087 41.721L69.8639 44.5541L69.8639 44.554L65.7087 41.721ZM64.3435 50.223L63.4573 55.1734L63.4576 55.1734L64.3435 50.223ZM67.2253 46.179L72.2062 45.4846L72.2062 45.4846L67.2253 46.179ZM67.8581 45.8284L71.5767 42.4426L71.5767 42.4426L67.8581 45.8284ZM66.2136 59.4017L61.64 61.4931L61.771 61.7795L61.9367 62.0474L66.2136 59.4017ZM75.404 54.472L79.8058 52.0397L79.8057 52.0396L75.404 54.472ZM78.9656 40.5199L76.909 35.9305L76.8331 35.9645L76.7583 36.0011L78.9656 40.5199ZM88.3415 26.6605L83.3512 27.2838L83.3518 27.288L88.3415 26.6605ZM89.0837 26.264L92.7164 22.7861L92.7125 22.7821L89.0837 26.264ZM89.155 45.4242L92.2682 49.3738L92.2684 49.3737L89.155 45.4242ZM88.032 55.1722L86.6768 60.0152L86.8891 60.0746L87.1057 60.1152L88.032 55.1722ZM93.7195 50.1185L88.6941 50.3119L88.6942 50.3149L93.7195 50.1185ZM94.3943 49.8411L98.6079 47.0958L98.6073 47.0949L94.3943 49.8411ZM95.1218 60.6898L93.8255 65.5489L93.9972 65.5947L94.1717 65.6283L95.1218 60.6898ZM101.255 53.5443L106.173 52.4937L106.147 52.3746L106.116 52.2568L101.255 53.5443ZM100.881 48.8636L95.874 48.389L95.874 48.3892L100.881 48.8636ZM101.551 48.9476L106.549 48.3955L106.549 48.3927L101.551 48.9476ZM102.111 51.4613L97.3713 53.1425L97.4216 53.2841L97.4802 53.4225L102.111 51.4613ZM101.85 64.3304L105.977 67.2045L105.977 67.2045L101.85 64.3304ZM99.1726 74.8392L97.2795 79.4984L97.2798 79.4985L99.1726 74.8392ZM102.751 73.6419L98.3634 71.1837L98.36 71.1897L102.751 73.6419ZM104.311 73.7611L109.329 73.4166L109.329 73.4166L104.311 73.7611ZM104.272 79.2816L99.2623 78.8432L98.6626 85.697L105.375 84.1882L104.272 79.2816ZM111.913 73.6107L115.961 76.5952L116.126 76.3706L116.266 76.1292L111.913 73.6107ZM113.381 69.5247L108.471 68.4349L108.47 68.438L113.381 69.5247ZM116.205 70.0423L121.205 69.5051L121.205 69.5044L116.205 70.0423ZM108.911 80.8079L111.915 84.8414L112.09 84.7105L112.254 84.5648L108.911 80.8079ZM104.197 85.7435L99.9352 83.0735L99.009 84.5518L99.1973 86.2862L104.197 85.7435ZM102.561 95.4613L99.0267 91.8838L98.9942 91.9159L98.9623 91.9486L102.561 95.4613ZM91.7702 101.984L89.7614 97.3733L82.673 100.462L88.3702 105.689L91.7702 101.984ZM100.231 109.099L103.376 105.175L103.373 105.172L100.231 109.099ZM111.802 122.803L116.822 123.115L116.841 122.81L116.823 122.504L111.802 122.803ZM85.822 120.519L83.7707 125.111L83.8815 125.16L83.9946 125.204L85.822 120.519ZM66.8122 108.828L70.0104 104.947L68.3204 103.555L66.1496 103.843L66.8122 108.828ZM44.0261 108.368L42.9851 113.288L42.9852 113.288L44.0261 108.368ZM16.863 90.7747L11.8501 91.1771L11.9031 91.8375L12.1253 92.4616L16.863 90.7747ZM17.7107 87.8734L15.6492 83.2862L15.4571 83.3726L15.2728 83.4747L17.7107 87.8734ZM29.0574 89.4241L27.6812 94.2613L39.7702 97.7007L33.3904 86.8714L29.0574 89.4241ZM28.574 54.8411L24.4193 52.0074L24.4191 52.0076L28.574 54.8411ZM28.241 44.6468L32.8342 42.5989L32.8342 42.5989L28.241 44.6468ZM28.7048 44.2865L32.5533 41.049L32.5533 41.049L28.7048 44.2865ZM30.9831 53.3831L35.8589 54.6154L35.859 54.6151L30.9831 53.3831ZM31.1013 62.8831L26.8173 65.5174L26.9616 65.752L27.1307 65.9695L31.1013 62.8831ZM36.3747 58.7826L32.0321 61.319L32.0322 61.3191L36.3747 58.7826ZM39.1687 49.2913L36.0953 45.3106L36.0953 45.3106L39.1687 49.2913ZM39.7078 49.7181L34.9548 48.0746L34.9548 48.0746L39.7078 49.7181ZM42.2224 56.599L45.755 60.1784L45.7566 60.1768L42.2224 56.599ZM42.1648 47.8783L37.4183 49.5404L37.4184 49.5405L42.1648 47.8783ZM44.1189 39.0423L41.0446 35.0623L41.0446 35.0623L44.1189 39.0423ZM44.613 39.4769L49.3202 41.2472L49.3205 41.2465L44.613 39.4769ZM48.6667 39.5433L53.6522 40.2041L53.6522 40.204L48.6667 39.5433ZM44.5456 26.5853L49.5585 26.9893L49.564 26.9206L49.5676 26.8518L44.5456 26.5853ZM59.6052 9.31868L61.1155 14.1156C58.8917 14.8158 56.8101 13.7513 55.8066 12.2272C54.8536 10.7798 54.7058 8.72332 55.8608 7.04987L59.9997 9.90657L64.1387 12.7633C65.4973 10.7949 65.3231 8.39065 64.2074 6.69611C63.0412 4.92489 60.6605 3.71399 58.0949 4.52175L59.6052 9.31868ZM59.9997 9.90657L55.8608 7.04988C48.4613 17.7707 46.7485 26.375 49.5455 32.65C50.932 35.7606 53.2809 37.857 55.7708 38.9642C58.0181 39.9637 61.121 40.4383 63.815 39.0673L61.5339 34.5853L59.2529 30.1033C60.179 29.632 60.4388 30.0323 59.8578 29.7739C59.5194 29.6234 59.0548 29.2785 58.7324 28.5552C58.1115 27.1622 57.3995 22.5274 64.1387 12.7633L59.9997 9.90657ZM61.5339 34.5853L63.8153 39.0671C65.8759 38.0182 67.4025 36.2644 67.9904 33.9839C68.5192 31.9327 68.1467 30.0045 67.677 28.5984C66.7493 25.8214 64.8191 23.2381 63.2391 21.4883L59.5066 24.8587L55.774 28.2291C56.3249 28.8391 56.8592 29.5157 57.2975 30.1826C57.7491 30.8697 58.0148 31.4193 58.1371 31.7853C58.2749 32.198 58.1122 32.0102 58.2507 31.473C58.3294 31.1679 58.4858 30.8395 58.7253 30.5519C58.958 30.2723 59.1763 30.1423 59.2526 30.1034L61.5339 34.5853ZM59.5066 24.8587L63.2394 21.4886C63.1581 21.3985 63.2257 21.4459 63.2931 21.6386C63.3251 21.73 63.3488 21.8312 63.3608 21.9355C63.3727 22.0387 63.371 22.1251 63.3652 22.1872C63.3542 22.3058 63.3321 22.3008 63.4004 22.1445C63.47 21.9851 63.6034 21.7372 63.8424 21.39L59.6999 18.5384L55.5575 15.6868C54.6221 17.0456 53.5644 18.9547 53.3503 21.2554C53.1111 23.8271 53.9801 26.2422 55.7738 28.2288L59.5066 24.8587ZM59.6999 18.5384L63.8394 21.3943C62.5053 23.3281 60.2432 23.7061 58.6184 23.1974C57.0663 22.7116 55.6245 21.3072 55.4128 19.2767L60.4148 18.7552L65.4167 18.2337C65.1672 15.8402 63.4716 14.1772 61.6233 13.5986C59.7024 12.9973 57.1018 13.4484 55.5605 15.6825L59.6999 18.5384ZM60.4148 18.7552L55.4128 19.2769C55.7931 22.923 57.6359 26.8608 62.6114 30.1779L65.4011 25.9935L68.1908 21.8091C66.8195 20.8948 66.1865 20.1232 65.8787 19.6181C65.5813 19.1299 65.4643 18.6893 65.4167 18.2335L60.4148 18.7552ZM65.4011 25.9935L62.4192 30.0432C63.9705 31.1854 64.4174 32.0575 64.5625 32.4879C64.7064 32.9145 64.723 33.4078 64.5206 34.098C63.9751 35.9584 62.7941 37.0684 61.5535 38.888L65.7087 41.721L69.8639 44.554C69.9986 44.3565 73.0316 40.8189 74.1724 36.9279C74.8132 34.7423 75.041 32.084 74.0933 29.2738C73.1469 26.4675 71.1996 24.0177 68.383 21.9438L65.4011 25.9935ZM65.7087 41.721L61.5536 38.888C61.0496 39.6272 59.1956 42.151 58.2297 44.588C57.7811 45.7199 57.0851 47.8525 57.6981 50.1509C58.0454 51.4531 58.7866 52.6908 59.963 53.6378C61.082 54.5386 62.3394 54.9732 63.4573 55.1734L64.3435 50.223L65.2297 45.2726C65.2773 45.2811 65.7317 45.3694 66.2702 45.8029C66.8661 46.2826 67.2493 46.9321 67.4165 47.5589C67.5621 48.1047 67.505 48.4751 67.4971 48.524C67.4874 48.5846 67.4924 48.5155 67.5802 48.2941C67.7621 47.8351 68.0987 47.2145 68.5614 46.4841C69.0281 45.7474 69.4444 45.1693 69.8639 44.5541L65.7087 41.721ZM64.3435 50.223L63.4576 55.1734C64.8815 55.4282 66.5423 55.3972 68.1514 54.6484C69.8077 53.8777 70.8646 52.6003 71.4734 51.3521C72.5457 49.1537 72.3867 46.7789 72.2062 45.4846L67.2253 46.179L62.2444 46.8735C62.2792 47.1229 62.2812 47.3008 62.2753 47.3866C62.2675 47.4997 62.2592 47.2998 62.4332 46.9429C62.6409 46.5171 63.102 45.9043 63.9081 45.5292C64.6671 45.176 65.2235 45.2715 65.2294 45.2726L64.3435 50.223ZM67.2253 46.179L72.2062 45.4846C72.4894 47.5157 71.4128 49.2795 69.9184 50.1312C68.3054 51.0504 65.8188 51.0585 64.1396 49.2143L67.8581 45.8284L71.5767 42.4426C69.6464 40.3226 66.8177 40.3214 64.9381 41.3926C63.1773 42.3961 61.9098 44.4731 62.2444 46.8735L67.2253 46.179ZM67.8581 45.8284L64.1396 49.2143C64.2357 49.3198 64.1928 49.3055 64.1484 49.1726C64.105 49.0429 64.1126 48.9573 64.1107 48.9823C64.0968 49.1651 63.981 49.639 63.4437 50.7434C63.0749 51.5016 62.1376 53.2241 61.623 54.6201C61.0639 56.1368 60.384 58.7462 61.64 61.4931L66.2136 59.4017L70.7872 57.3103C71.1941 58.2001 70.8174 58.758 71.0605 58.0987C71.348 57.3187 71.7115 56.7405 72.4884 55.1434C73.097 53.8924 73.9719 51.9563 74.1399 49.7442C74.331 47.2291 73.5951 44.6594 71.5767 42.4426L67.8581 45.8284ZM66.2136 59.4017L61.9367 62.0474C63.5757 64.6969 65.9693 66.7 69.0543 67.1776C72.043 67.6402 74.6388 66.5051 76.427 65.0932C78.2116 63.6842 79.587 61.7195 80.3081 59.599C81.0196 57.5065 81.2638 54.6783 79.8058 52.0397L75.404 54.472L71.0023 56.9043C70.8471 56.6236 70.8186 56.3901 70.816 56.2928C70.8137 56.2077 70.8293 56.2317 70.7854 56.3608C70.7429 56.486 70.6642 56.6494 70.5447 56.8188C70.4254 56.9882 70.2985 57.1167 70.1943 57.199C70.0885 57.2825 70.0536 57.2817 70.1152 57.262C70.19 57.2379 70.3634 57.2023 70.5929 57.2378C70.702 57.2547 70.7966 57.2838 70.8706 57.3156C70.9438 57.347 70.9776 57.3725 70.9737 57.3696C70.9629 57.3616 70.7755 57.2167 70.4905 56.756L66.2136 59.4017ZM75.404 54.472L79.8057 52.0396C79.0464 50.6654 78.6839 49.0722 78.8542 47.8399C78.9828 46.9094 79.4154 45.8971 81.1729 45.0386L78.9656 40.5199L76.7583 36.0011C71.9605 38.3447 69.4735 42.2478 68.8908 46.4625C68.3499 50.3754 69.4842 54.1572 71.0023 56.9044L75.404 54.472ZM78.9656 40.5199L81.0221 45.1092C91.6935 40.3272 94.0515 31.7596 93.3313 26.033L88.3415 26.6605L83.3518 27.288C83.5691 29.0164 83.1942 33.114 76.909 35.9305L78.9656 40.5199ZM88.3415 26.6605L93.3318 26.0372C93.6201 28.3453 92.2184 29.9596 90.9965 30.625C89.7398 31.3092 87.3015 31.6704 85.4549 29.7459L89.0837 26.264L92.7125 22.7821C90.5922 20.5723 87.7583 20.9356 86.1868 21.7913C84.6499 22.6281 83.014 24.5833 83.3512 27.2838L88.3415 26.6605ZM89.0837 26.264L85.4511 29.7419C88.8572 33.2995 89.0172 35.803 88.7637 37.2221C88.4537 38.9579 87.2528 40.52 86.0417 41.4746L89.155 45.4242L92.2684 49.3737C94.749 47.4182 97.7933 43.8716 98.6652 38.9906C99.5936 33.7929 97.8721 28.1713 92.7164 22.7861L89.0837 26.264ZM89.155 45.4242L86.0418 41.4745C83.535 43.4505 81.1459 46.4688 80.4066 49.8398C80.0172 51.6157 80.022 53.8664 81.2345 55.9896C82.4751 58.1619 84.5288 59.4142 86.6768 60.0152L88.032 55.1722L89.3871 50.3292C89.0856 50.2448 89.5757 50.3135 89.9687 51.0016C90.3336 51.6406 90.2067 52.1064 90.2313 51.9943C90.2586 51.8697 90.3911 51.4848 90.7858 50.9242C91.1643 50.3866 91.6798 49.8376 92.2682 49.3738L89.155 45.4242ZM88.032 55.1722L87.1057 60.1152C90.7873 60.8051 94.3287 59.9747 96.6292 57.0967C98.5665 54.6731 98.8156 51.7362 98.7447 49.9221L93.7195 50.1185L88.6942 50.3149C88.6998 50.4574 88.697 50.5919 88.6872 50.7122C88.6774 50.8332 88.6618 50.9237 88.6477 50.9837C88.6335 51.0441 88.6253 51.055 88.6378 51.0273C88.651 50.9981 88.6904 50.9195 88.7726 50.8167C88.8577 50.7101 88.9749 50.5955 89.1224 50.495C89.2711 50.3938 89.4082 50.336 89.5052 50.307C89.6932 50.2508 89.5766 50.345 88.9582 50.2292L88.032 55.1722ZM93.7195 50.1185L98.7448 49.9251C98.8245 51.9952 97.5492 53.6554 95.9464 54.3395C94.1844 55.0914 91.6005 54.7647 90.1812 52.5873L94.3943 49.8411L98.6073 47.0949C96.9774 44.5943 94.0486 44.2135 91.9982 45.0886C90.1069 45.8958 88.5996 47.8562 88.6941 50.3119L93.7195 50.1185ZM94.3943 49.8411L90.1806 52.5864C90.3893 52.9067 90.5399 53.2995 89.9272 55.2746C89.8109 55.6498 89.6025 56.2897 89.4573 56.812C89.3106 57.3397 89.0989 58.1782 89.0613 59.1109C89.0224 60.0739 89.1504 61.5881 90.1567 63.0398C91.1928 64.5344 92.6504 65.2354 93.8255 65.5489L95.1218 60.6898L96.4181 55.8306C96.7829 55.928 97.7091 56.2798 98.4231 57.3098C99.1074 58.297 99.1228 59.2311 99.1112 59.5164C99.101 59.7714 99.0566 59.8343 99.1478 59.5065C99.2405 59.1732 99.3406 58.8774 99.5339 58.2544C100.16 56.2369 101.567 51.6377 98.6079 47.0958L94.3943 49.8411ZM95.1218 60.6898L94.1717 65.6283C96.4324 66.0632 98.7029 65.9627 100.769 65.0429C102.867 64.1092 104.267 62.5476 105.125 60.934C106.702 57.9659 106.619 54.5823 106.173 52.4937L101.255 53.5443L96.3365 54.5948C96.3784 54.7908 96.4164 55.157 96.3833 55.5586C96.3495 55.9691 96.2619 56.1784 96.2428 56.2142C96.2409 56.2178 96.2722 56.1581 96.3574 56.0743C96.4486 55.9846 96.5628 55.9058 96.6793 55.8539C96.9358 55.7397 96.8485 55.9007 96.0719 55.7513L95.1218 60.6898ZM101.255 53.5443L106.116 52.2568C105.84 51.215 105.806 50.1999 105.887 49.338L100.881 48.8636L95.874 48.3892C95.7009 50.2156 95.7618 52.4476 96.3932 54.8317L101.255 53.5443ZM100.881 48.8636L105.887 49.3382C105.793 50.3276 105.324 51.6013 104.136 52.5506C102.986 53.4698 101.638 53.6988 100.538 53.5498C98.3326 53.2511 96.7732 51.4939 96.5522 49.5025L101.551 48.9476L106.549 48.3927C106.278 45.9492 104.405 43.9236 101.888 43.5827C100.632 43.4126 99.1285 43.677 97.8565 44.6936C96.547 45.7402 95.9892 47.1731 95.874 48.389L100.881 48.8636ZM101.551 48.9476L96.5518 49.4997C96.6739 50.6045 96.9168 51.8611 97.3713 53.1425L102.111 51.4613L106.851 49.7801C106.706 49.3724 106.605 48.8978 106.549 48.3955L101.551 48.9476ZM102.111 51.4613L97.4802 53.4225C98.795 56.5271 98.7606 58.4463 98.5855 59.4548C98.4103 60.4637 98.0236 61.0253 97.7234 61.4563L101.85 64.3304L105.977 67.2045C106.565 66.3612 107.944 64.351 108.495 61.1753C109.047 57.9992 108.699 54.121 106.742 49.5L102.111 51.4613ZM101.85 64.3304L97.7235 61.4563C97.7649 61.3968 95.2756 64.4511 93.9412 67.0435C93.2577 68.3715 92.3621 70.4625 92.4545 72.7702C92.5052 74.0366 92.8591 75.4657 93.7851 76.7829C94.7108 78.0996 95.9705 78.9665 97.2795 79.4984L99.1726 74.8392L101.066 70.18C101.197 70.2336 101.63 70.4531 102.013 70.9982C102.397 71.5438 102.493 72.077 102.505 72.3681C102.519 72.7251 102.421 72.5474 102.884 71.6466C103.278 70.8814 103.845 70.0357 104.442 69.2262C104.732 68.8331 105.008 68.4775 105.257 68.1568C105.453 67.905 105.768 67.5043 105.977 67.2045L101.85 64.3304ZM99.1726 74.8392L97.2798 79.4985C99.0619 80.2224 101.174 80.4726 103.257 79.6308C105.251 78.8252 106.454 77.3243 107.141 76.0941L102.751 73.6419L98.36 71.1897C98.3669 71.1775 98.6699 70.6363 99.4889 70.3053C99.8965 70.1406 100.293 70.0894 100.616 70.1042C100.92 70.1182 101.081 70.1861 101.065 70.1799L99.1726 74.8392ZM102.751 73.6419L107.138 76.1001C106.239 77.7049 104.818 78.1528 104.5 78.2461C103.996 78.3933 103.584 78.4062 103.291 78.3879C103.031 78.3716 102.479 78.3079 101.813 77.9706C101.245 77.6826 99.4624 76.5577 99.294 74.1056L104.311 73.7611L109.329 73.4166C109.144 70.7276 107.187 69.4178 106.359 68.9984C105.434 68.5296 104.537 68.3881 103.92 68.3494C103.271 68.3088 102.489 68.3547 101.676 68.5924C101.048 68.7761 99.3785 69.3719 98.3634 71.1837L102.751 73.6419ZM104.311 73.7611L99.294 74.1055C99.4098 75.7917 99.3913 77.3687 99.2623 78.8432L104.272 79.2816L109.282 79.7199C109.458 77.7059 109.479 75.6051 109.329 73.4166L104.311 73.7611ZM104.272 79.2816L105.375 84.1882C109.003 83.3727 112.709 81.0046 115.961 76.5952L111.913 73.6107L107.865 70.6262C105.785 73.4473 104.033 74.1808 103.169 74.3749L104.272 79.2816ZM111.913 73.6107L116.266 76.1292C117.505 73.9868 118.06 71.6545 118.291 70.6115L113.381 69.5247L108.47 68.438C108.382 68.8393 108.263 69.3241 108.099 69.8251C107.93 70.339 107.745 70.7719 107.56 71.0922L111.913 73.6107ZM113.381 69.5247L118.29 70.6146C117.963 72.0884 117.037 72.8258 116.664 73.0737C116.205 73.3791 115.649 73.5847 115.001 73.6127C114.307 73.6428 113.277 73.4609 112.371 72.6642C111.456 71.8588 111.243 70.9341 111.205 70.5802L116.205 70.0423L121.205 69.5044C121.047 68.0387 120.448 66.3729 119.014 65.1115C117.59 63.8588 115.909 63.5058 114.566 63.564C113.268 63.6202 112.064 64.0531 111.093 64.6992C110.208 65.2879 108.905 66.4794 108.471 68.4349L113.381 69.5247ZM116.205 70.0423L111.205 70.5796C111.21 70.6332 111.208 70.6294 111.202 70.6538C111.19 70.7056 111.122 70.9504 110.823 71.4381C110.175 72.4945 108.723 74.2427 105.568 77.0511L108.911 80.8079L112.254 84.5648C118.832 78.7109 121.738 74.4614 121.205 69.5051L116.205 70.0423ZM108.911 80.8079L105.907 76.7745C103.599 78.4935 101.477 80.6122 99.9352 83.0735L104.197 85.7435L108.459 88.4135C109.198 87.234 110.37 85.9919 111.915 84.8414L108.911 80.8079ZM104.197 85.7435L99.1973 86.2862C99.5162 89.224 99.5109 90.5419 99.3945 91.2409C99.3715 91.3788 99.3488 91.4577 99.3363 91.4955C99.3247 91.5306 99.3172 91.5448 99.3141 91.5505C99.3131 91.5522 99.2652 91.6481 99.0267 91.8838L102.561 95.4613L106.096 99.0388C107.74 97.4145 108.879 95.5147 109.316 92.893C109.684 90.6816 109.513 88.1128 109.197 85.2008L104.197 85.7435ZM102.561 95.4613L98.9623 91.9486C97.6852 93.2571 94.5877 95.2704 89.7614 97.3733L91.7702 101.984L93.7791 106.594C98.9326 104.349 103.491 101.709 106.16 98.9739L102.561 95.4613ZM91.7702 101.984L88.3702 105.689C90.7445 107.868 92.8793 109.666 94.4542 110.946C95.8738 112.1 97.2447 113.15 97.0895 113.026L100.231 109.099L103.373 105.172C103.036 104.903 99.5782 102.323 95.1703 98.2781L91.7702 101.984ZM100.231 109.099L97.0859 113.023C97.3548 113.239 99.9783 115.291 102.559 117.845C103.857 119.13 105.026 120.427 105.851 121.582C106.802 122.913 106.798 123.372 106.782 123.102L111.802 122.803L116.823 122.504C116.661 119.792 115.202 117.368 114.035 115.734C112.742 113.925 111.13 112.177 109.635 110.697C108.12 109.197 106.615 107.866 105.467 106.891C104.889 106.401 104.396 105.995 104.027 105.696C103.843 105.547 103.691 105.425 103.575 105.333C103.518 105.287 103.47 105.249 103.434 105.221C103.416 105.206 103.402 105.195 103.391 105.186C103.379 105.177 103.375 105.174 103.376 105.175L100.231 109.099ZM111.802 122.803L106.783 122.491C106.766 122.762 106.724 122.63 106.905 122.335C107.112 121.995 107.405 121.779 107.601 121.687C107.751 121.617 107.214 121.877 105.216 121.571C101.367 120.983 95.5258 118.906 87.6495 115.834L85.822 120.519L83.9946 125.204C91.6018 128.171 98.5341 130.725 103.696 131.514C106.203 131.897 109.231 132.033 111.874 130.792C113.316 130.116 114.587 129.053 115.488 127.578C116.363 126.147 116.73 124.589 116.822 123.115L111.802 122.803ZM85.822 120.519L87.8733 115.927C80.8244 112.778 74.9258 108.998 70.0104 104.947L66.8122 108.828L63.6141 112.71C69.2144 117.325 75.8825 121.587 83.7707 125.111L85.822 120.519ZM66.8122 108.828L66.1496 103.843C58.9044 104.806 51.5964 104.829 45.067 103.447L44.0261 108.368L42.9852 113.288C50.9434 114.971 59.4569 114.879 67.4749 113.814L66.8122 108.828ZM44.0261 108.368L45.0671 103.447C28.2537 99.8901 22.3975 91.3256 21.6007 89.0878L16.863 90.7747L12.1253 92.4616C14.3696 98.7647 23.6362 109.194 42.9851 113.288L44.0261 108.368ZM16.863 90.7747L21.876 90.3723C21.8775 90.391 21.874 90.349 21.8771 90.2775C21.8803 90.2046 21.887 90.1794 21.8811 90.2083C21.8798 90.2145 21.8386 90.4356 21.6661 90.7619C21.4951 91.0853 21.0555 91.7694 20.1485 92.2721L17.7107 87.8734L15.2728 83.4747C12.7802 84.8562 12.1858 87.4123 12.0251 88.2017C11.7934 89.3398 11.7908 90.4389 11.8501 91.1771L16.863 90.7747ZM17.7107 87.8734L19.7721 92.4605C20.0985 92.3138 20.444 92.1296 20.4617 92.1206C20.5368 92.082 20.4177 92.148 20.2275 92.2125C19.741 92.3775 19.446 92.3271 19.6895 92.3445C20.4747 92.4006 22.48 92.7815 27.6812 94.2613L29.0574 89.4241L30.4335 84.587C25.389 83.1518 22.3957 82.4541 20.4063 82.312C19.2625 82.2302 18.1362 82.3008 16.9966 82.6874C16.4798 82.8627 16.0787 83.0646 15.8691 83.1721C15.6596 83.2796 15.797 83.2105 15.6631 83.2787C15.63 83.2956 15.6315 83.2942 15.6492 83.2862L17.7107 87.8734ZM29.0574 89.4241L33.3904 86.8714C29.9361 81.0079 29.3333 74.2729 29.944 68.4126C30.2465 65.5103 30.8372 62.9306 31.449 60.9488C31.7545 59.9589 32.056 59.1485 32.3131 58.5455C32.594 57.8866 32.7518 57.641 32.7288 57.6747L28.574 54.8411L24.4191 52.0076C23.4956 53.3618 22.5808 55.5767 21.8383 57.9822C21.0496 60.5372 20.3162 63.7614 19.9401 67.37C19.1937 74.5314 19.8162 83.6457 24.7243 91.9769L29.0574 89.4241ZM28.574 54.8411L32.7286 57.6749C34.6667 54.8334 34.8909 51.6288 34.6403 49.1502C34.3862 46.6375 33.5961 44.3077 32.8342 42.5989L28.241 44.6468L23.6477 46.6947C24.1185 47.7505 24.5175 49.0184 24.6332 50.1621C24.7522 51.3398 24.5266 51.8501 24.4193 52.0074L28.574 54.8411ZM28.241 44.6468L32.8342 42.5989C33.5523 44.2095 33.3798 46.6107 31.4411 48.1503C30.4885 48.9068 29.1887 49.3345 27.8036 49.141C26.4188 48.9476 25.4328 48.2091 24.8564 47.5239L28.7048 44.2865L32.5533 41.049C31.8467 40.2091 30.7171 39.3922 29.1951 39.1796C27.673 38.9669 26.2425 39.4347 25.1859 40.2739C23.0392 41.9787 22.765 44.7148 23.6477 46.6947L28.241 44.6468ZM28.7048 44.2865L24.8564 47.5239C25.1907 47.9213 25.6361 48.8217 25.9089 50.0831C26.0342 50.6629 26.0969 51.2029 26.1114 51.6348C26.1274 52.1134 26.0783 52.2658 26.1073 52.1512L30.9831 53.3831L35.859 54.6151C36.3792 52.5563 36.1915 50.0462 35.7399 47.9575C35.2732 45.7991 34.3256 43.1559 32.5533 41.049L28.7048 44.2865ZM30.9831 53.3831L26.1074 52.1509C25.7499 53.5655 23.3366 59.8567 26.8173 65.5174L31.1013 62.8831L35.3853 60.2489C35.0733 59.7415 34.9439 59.1455 35.0343 58.2112C35.1456 57.0624 35.453 56.2214 35.8589 54.6154L30.9831 53.3831ZM31.1013 62.8831L27.1307 65.9695C29.6948 69.2681 34.7089 71.9768 39.2029 68.9056C43.8314 65.7424 42.8925 59.97 40.7172 56.246L36.3747 58.7826L32.0322 61.3191C32.5366 62.1826 32.4554 62.4854 32.4669 62.2646C32.4816 61.9813 32.6738 61.185 33.5277 60.6014C34.3545 60.0364 35.1322 60.1298 35.4125 60.2164C35.6736 60.2971 35.4888 60.3331 35.0719 59.7967L31.1013 62.8831ZM36.3747 58.7826L40.7173 56.2461C40.5216 55.911 40.508 55.7295 40.5058 55.6643C40.5029 55.5786 40.5164 55.4239 40.6251 55.171C40.8804 54.5769 41.4876 53.8545 42.2421 53.272L39.1687 49.2913L36.0953 45.3106C34.5157 46.5302 32.5367 48.5174 31.3839 51.2002C30.1336 54.1101 29.937 57.7318 32.0321 61.319L36.3747 58.7826ZM39.1687 49.2913L42.242 53.272C40.4086 54.6876 37.9965 54.4618 36.438 53.2065C34.9706 52.0246 34.2921 49.991 34.9548 48.0746L39.7078 49.7181L44.4607 51.3616C45.2437 49.0973 44.4413 46.7378 42.7472 45.3733C40.962 43.9353 38.2202 43.6701 36.0953 45.3106L39.1687 49.2913ZM39.7078 49.7181L34.9548 48.0746C34.1445 50.4179 33.7009 52.562 33.7524 54.4922C33.8049 56.4572 34.3997 58.5984 36.0826 60.2026C37.763 61.8044 39.8165 62.1902 41.3791 62.082C42.7707 61.9856 44.4641 61.4524 45.755 60.1784L42.2224 56.599L38.6898 53.0195C39.159 52.5564 39.603 52.3403 39.8456 52.2426C40.1221 52.1311 40.4005 52.0675 40.6841 52.0479C41.2463 52.0089 42.2032 52.1412 43.0224 52.9221C43.8442 53.7055 43.8133 54.4586 43.807 54.2236C43.7998 53.9539 43.8643 53.0862 44.4607 51.3616L39.7078 49.7181ZM42.2224 56.599L45.7566 60.1768C45.7866 60.1472 45.8143 60.1208 45.8962 60.0421C45.9645 59.9765 46.0698 59.875 46.1838 59.7595C46.4174 59.5229 46.7392 59.1763 47.0628 58.7241C47.7705 57.7356 48.2641 56.5567 48.4575 55.1577C48.7964 52.7066 48.1675 49.8032 46.9112 46.216L42.1648 47.8783L37.4184 49.5405C37.9724 51.1225 38.257 52.2098 38.3915 52.9386C38.5282 53.6792 38.4791 53.8888 38.4942 53.78C38.5229 53.5726 38.6379 53.2135 38.8842 52.8695C38.9772 52.7397 39.0475 52.6715 39.0252 52.6941C39.0113 52.7082 38.9876 52.7315 38.9279 52.7889C38.8817 52.8332 38.7824 52.9281 38.6882 53.0211L42.2224 56.599ZM42.1648 47.8783L46.9112 46.2161C46.4254 44.8289 46.5764 44.0854 46.6771 43.7772C46.7983 43.4063 47.0209 43.1554 47.1932 43.0223L44.1189 39.0423L41.0446 35.0623C39.5188 36.2409 37.9533 38.092 37.1164 40.6532C36.2591 43.277 36.282 46.2956 37.4183 49.5404L42.1648 47.8783ZM44.1189 39.0423L47.1931 43.0223C46.4116 43.626 45.3296 44.0506 44.0925 43.9905C42.8933 43.9322 41.8742 43.4335 41.1448 42.772C39.6905 41.4531 39.2585 39.4286 39.9056 37.7073L44.613 39.4769L49.3205 41.2465C50.0966 39.1818 49.5627 36.8279 47.9017 35.3215C46.0526 33.6445 43.1811 33.412 41.0446 35.0623L44.1189 39.0423ZM44.613 39.4769L39.9058 37.7066C39.2534 39.4415 38.7823 41.8507 39.8527 44.1702C41.1124 46.9002 43.7561 47.9682 46.0216 47.8537C50.0472 47.6502 53.121 44.2118 53.6522 40.2041L48.6667 39.5433L43.6813 38.8825C43.6845 38.8581 43.7273 38.6571 43.9577 38.4216C44.1244 38.2512 44.6067 37.8542 45.5138 37.8084C45.9957 37.784 46.6722 37.8643 47.3793 38.2503C48.1223 38.6559 48.6731 39.2792 48.9853 39.9559C49.5478 41.1749 49.0832 41.8774 49.3202 41.2472L44.613 39.4769ZM48.6667 39.5433L53.6522 40.204C54.1908 36.1394 52.1275 32.4645 51.1524 30.61C50.5282 29.4229 50.1059 28.6289 49.8148 27.8857C49.5331 27.1669 49.5626 26.9384 49.5585 26.9893L44.5456 26.5853L39.5328 26.1813C39.3635 28.2819 39.8984 30.1476 40.4497 31.5547C40.9915 32.9376 41.7295 34.3013 42.2498 35.2909C43.5638 37.7898 43.7261 38.5442 43.6812 38.8826L48.6667 39.5433ZM44.5456 26.5853L49.5676 26.8518C49.756 23.3018 51.3982 20.5611 53.7015 18.4134C56.0726 16.2026 58.9978 14.7824 61.1156 14.1156L59.6052 9.31868L58.0948 4.52179C54.8586 5.5408 50.5264 7.62191 46.8423 11.057C43.0905 14.5552 39.8799 19.6048 39.5236 26.3188L44.5456 26.5853Z" fill="white" mask="url(#path-1-outside-1_4948_66786)"/>
<path d="M104.312 73.7616C106.282 102.452 75.3065 109.575 59.5078 106.973C12.8748 99.2911 25.5112 59.3336 28.5748 54.8419C30.6202 51.843 29.4742 47.4124 28.2416 44.6478C28.0769 44.2785 28.445 43.9783 28.7053 44.2877C30.812 46.7921 31.4913 51.3748 30.9835 53.3843C30.3904 55.731 28.9922 59.4527 31.102 62.8837C34.7189 67.5372 39.7646 64.5861 36.3754 58.784C33.9966 54.7116 36.8351 51.094 39.1692 49.2919C39.4606 49.0669 39.8291 49.3711 39.7088 49.719C36.8951 57.8559 41.2707 57.541 42.2236 56.5997C43.2166 55.6189 44.5923 54.8075 42.166 47.8793C40.5437 43.2471 42.4213 40.3545 44.1194 39.0428C44.4098 38.8185 44.7427 39.1344 44.6135 39.4778C42.8345 44.2083 48.1206 43.6697 48.6673 39.5441C49.2508 35.1411 44.2164 30.6857 44.5468 26.5863C45.0914 16.3224 54.2521 11.0057 59.6061 9.31987C59.9479 9.21224 60.204 9.61237 60.0004 9.90731C45.8615 30.3926 57.9995 36.3862 61.535 34.5865C65.1204 32.7615 62.2872 27.938 59.5078 24.86C57.6467 22.7989 58.24 20.6616 59.7007 18.5398C59.9077 18.2391 60.3775 18.3928 60.4153 18.756C60.6373 20.885 61.649 23.4921 65.4023 25.9943C74.138 32.4265 67.0848 39.7046 65.7095 41.7217C64.3342 43.7389 60.0629 49.4577 64.3446 50.2239C67.1806 50.7314 67.5075 48.1964 67.2264 46.1799C67.1749 45.8106 67.6078 45.5537 67.8589 45.8294C72.0379 50.419 64.5163 55.6883 66.2146 59.4024C70.6087 66.5058 77.682 58.5946 75.4045 54.4731C73.127 50.3517 72.4112 43.723 78.9667 40.5209C87.4449 36.7217 88.8116 30.3893 88.3428 26.6618C88.2934 26.2691 88.8111 25.9794 89.0848 26.2653C97.647 35.2085 92.8474 42.5156 89.1556 45.4256C85.3227 48.4468 83.1337 53.8022 88.033 55.173C92.7983 56.066 93.8217 52.7238 93.7199 50.1198C93.7049 49.734 94.1848 49.5185 94.3955 49.842C97.5633 54.7041 91.8813 59.8262 95.1224 60.6908C101.197 61.8596 101.836 56.2626 101.256 53.5456C100.802 51.8323 100.754 50.2085 100.881 48.8641C100.924 48.4111 101.502 48.4965 101.552 48.9488C101.64 49.7524 101.812 50.6181 102.111 51.4626C105.383 59.1885 102.738 63.0572 101.851 64.3314C100.963 65.6055 94.464 72.9272 99.1736 74.8404C100.951 75.5625 102.071 74.8611 102.751 73.6431C102.983 73.2286 104.279 73.288 104.312 73.7616Z" fill="url(#paint0_linear_4948_66786)" stroke="#FF5B0B" stroke-width="1.25727"/>
<mask id="mask0_4948_66786" style="mask-type:alpha" maskUnits="userSpaceOnUse" x="24" y="8" width="82" height="101">
<path d="M104.312 73.7616C106.282 102.452 75.3065 109.575 59.5078 106.973C12.8748 99.2911 25.5112 59.3336 28.5748 54.8419C30.6202 51.843 29.4742 47.4124 28.2416 44.6478C28.0769 44.2785 28.445 43.9783 28.7053 44.2877C30.812 46.7921 31.4913 51.3748 30.9835 53.3843C30.3904 55.731 28.9922 59.4527 31.102 62.8837C34.7189 67.5372 39.7646 64.5861 36.3754 58.784C33.9966 54.7116 36.8351 51.094 39.1692 49.2919C39.4606 49.0669 39.8291 49.3711 39.7088 49.719C36.8951 57.8559 41.2707 57.541 42.2236 56.5997C43.2166 55.6188 44.5923 54.8075 42.166 47.8793C40.5437 43.2471 42.4213 40.3545 44.1194 39.0428C44.4098 38.8185 44.7427 39.1344 44.6135 39.4778C42.8345 44.2083 48.1206 43.6697 48.6673 39.5441C49.2508 35.1411 44.2164 30.6857 44.5468 26.5863C45.0914 16.3224 54.2521 11.0057 59.6061 9.31987C59.9479 9.21224 60.204 9.61237 60.0004 9.90731C45.8615 30.3926 57.9995 36.3862 61.535 34.5865C65.1204 32.7615 62.2872 27.938 59.5078 24.86C57.6467 22.7989 58.24 20.6616 59.7007 18.5398C59.9077 18.2391 60.3774 18.3928 60.4153 18.756C60.6373 20.885 61.649 23.4921 65.4023 25.9943C74.138 32.4265 67.0848 39.7046 65.7095 41.7217C64.3342 43.7389 60.0629 49.4577 64.3446 50.2239C67.1806 50.7314 67.5075 48.1964 67.2264 46.1799C67.1749 45.8106 67.6078 45.5537 67.8589 45.8294C72.0379 50.419 64.5163 55.6883 66.2146 59.4024C70.6087 66.5058 77.682 58.5946 75.4045 54.4731C73.127 50.3517 72.4112 43.723 78.9666 40.5209C87.4449 36.7217 88.8116 30.3893 88.3428 26.6618C88.2934 26.2691 88.8111 25.9794 89.0848 26.2653C97.6469 35.2085 92.8474 42.5156 89.1556 45.4256C85.3227 48.4468 83.1337 53.8022 88.033 55.173C92.7983 56.066 93.8217 52.7238 93.7199 50.1198C93.7048 49.734 94.1847 49.5185 94.3955 49.842C97.5633 54.7041 91.8813 59.8262 95.1224 60.6908C101.197 61.8596 101.836 56.2626 101.256 53.5456C100.802 51.8323 100.754 50.2085 100.881 48.8641C100.924 48.4111 101.502 48.4965 101.552 48.9488C101.64 49.7524 101.812 50.6181 102.111 51.4626C105.383 59.1885 102.738 63.0572 101.851 64.3314C100.963 65.6055 94.464 72.9272 99.1736 74.8404C100.951 75.5625 102.071 74.8611 102.751 73.6431C102.983 73.2286 104.279 73.288 104.312 73.7616Z" fill="url(#paint1_linear_4948_66786)" stroke="#FF5B0B" stroke-width="1.25727"/>
</mask>
<g mask="url(#mask0_4948_66786)">
<g filter="url(#filter1_g_4948_66786)">
<path d="M88.4332 40.6044C93.7639 32.4468 89.3087 27.9171 86.4147 26.672C100.147 24.4508 101.254 37.6766 102.365 40.6044C103.475 43.5322 97.7209 49.5899 90.2499 53.1235C82.7788 56.6571 81.7698 50.8014 88.4332 40.6044Z" fill="#FCAF20"/>
</g>
<g filter="url(#filter2_g_4948_66786)">
<path d="M56.3057 15.3427C44.3381 19.5363 44.5178 33.4793 46.1036 39.9266L42.1961 38.6239L32.66 19.3559L51.7862 8.98377C58.2792 9.3561 68.2733 11.1492 56.3057 15.3427Z" fill="#FCAF20"/>
</g>
<g filter="url(#filter3_g_4948_66786)">
<path d="M66.0243 92.2315C32.7546 95.3344 15.665 70.8296 16.6704 53.0887C13.2229 67.3819 9.67969 84.3304 9.67969 85.3647C9.67969 86.3989 17.2932 105.476 21.1 114.885L85.0966 116.609L109.445 93.9837L109.445 47.0098C106.357 60.2257 99.294 89.1286 66.0243 92.2315Z" fill="#DE6509"/>
</g>
<path d="M50.9898 16.6007C45.4176 21.4844 46.1105 26.6927 47.1329 28.9585C47.2058 29.1201 47.4233 29.0529 47.4159 28.8758C47.2373 24.6126 49.6079 19.5625 51.2402 16.8126C51.3371 16.6493 51.1326 16.4755 50.9898 16.6007Z" fill="#FAC559"/>
<path d="M77.8937 43.5018C74.5946 46.9225 75.1346 50.105 76.2125 52.0434C76.3076 52.2145 76.5609 52.0807 76.5174 51.8899C75.8658 49.0322 77.3085 45.9118 79.2792 44.3468C82.8677 41.4971 84.9257 41.1016 85.889 38.1308C85.9435 37.9629 85.7318 37.8514 85.6122 37.9811C82.809 41.0224 80.4551 41.3315 77.8937 43.5018Z" fill="#FAC559"/>
<path d="M65.6306 36.397C67.3058 33.3516 66.8868 31.188 66.0333 29.7732C65.9636 29.6577 66.0446 29.5215 66.1703 29.5705C67.0312 29.9057 68.1647 31.4903 68.043 33.0201C67.8888 34.957 66.738 36.0385 65.849 36.6175C65.7063 36.7105 65.5485 36.5462 65.6306 36.397Z" fill="#FAC559"/>
<path d="M29.8079 63.6793C32.0465 66.3381 34.2159 66.7257 35.8431 66.4384C35.9759 66.415 36.0738 66.5396 35.9829 66.6392C35.3604 67.3218 33.474 67.8092 32.0905 67.1452C30.3388 66.3044 29.7439 64.8415 29.5235 63.8037C29.4881 63.6372 29.6982 63.549 29.8079 63.6793Z" fill="#FAC559"/>
<path d="M76.5296 60.7806C75.2925 64.5188 72.2948 65.582 68.5632 64.4006C68.4108 64.3523 68.31 64.4962 68.4285 64.6035C69.2541 65.3513 71.2219 66.5636 72.3447 66.5636C76.0542 66.5636 76.8511 63.0852 76.8449 60.8118C76.8443 60.6235 76.5887 60.6018 76.5296 60.7806Z" fill="#FAC559"/>
<path d="M76.5296 60.7806C75.2925 64.5188 72.2948 65.582 68.5632 64.4006C68.4108 64.3523 68.31 64.4962 68.4285 64.6035C69.2541 65.3513 71.2219 66.5636 72.3447 66.5636C76.0542 66.5636 76.8511 63.0852 76.8449 60.8118C76.8443 60.6235 76.5887 60.6018 76.5296 60.7806Z" fill="#FAC559"/>
<path d="M44.2123 49.6079C43.0837 47.5305 42.8311 45.1856 42.8401 43.7557C42.8413 43.5619 43.0149 43.5641 43.0365 43.7567C43.2619 45.7683 43.7063 47.184 45.4154 49.7931C47.1381 52.4229 45.9191 54.4596 44.8281 55.423C44.6934 55.5419 44.5122 55.3697 44.5855 55.2056C45.1135 54.0244 45.4762 51.9344 44.2123 49.6079Z" fill="#FAC559"/>
</g>
<path d="M104.312 73.7616C106.282 102.452 75.3065 109.575 59.5078 106.973C12.8748 99.2911 25.5112 59.3336 28.5748 54.8419C30.6202 51.843 29.4742 47.4124 28.2416 44.6478C28.0769 44.2785 28.445 43.9783 28.7053 44.2877C30.812 46.7921 31.4913 51.3748 30.9835 53.3843C30.3904 55.731 28.9922 59.4527 31.102 62.8837C34.7189 67.5372 39.7646 64.5861 36.3754 58.784C33.9966 54.7116 36.8351 51.094 39.1692 49.2919C39.4606 49.0669 39.8291 49.3711 39.7088 49.719C36.8951 57.8559 41.2707 57.541 42.2236 56.5997C43.2166 55.6189 44.5923 54.8075 42.166 47.8793C40.5437 43.2471 42.4213 40.3545 44.1194 39.0428C44.4098 38.8185 44.7427 39.1344 44.6135 39.4778C42.8345 44.2083 48.1206 43.6697 48.6673 39.5441C49.2508 35.1411 44.2164 30.6857 44.5468 26.5863C45.0914 16.3224 54.2521 11.0057 59.6061 9.31987C59.9479 9.21224 60.204 9.61237 60.0004 9.90731C45.8615 30.3926 57.9995 36.3862 61.535 34.5865C65.1204 32.7615 62.2872 27.938 59.5078 24.86C57.6467 22.7989 58.24 20.6616 59.7007 18.5398C59.9077 18.2391 60.3775 18.3928 60.4153 18.756C60.6373 20.885 61.649 23.4921 65.4023 25.9943C74.138 32.4265 67.0848 39.7046 65.7095 41.7217C64.3342 43.7389 60.0629 49.4577 64.3446 50.2239C67.1806 50.7314 67.5075 48.1964 67.2264 46.1799C67.1749 45.8106 67.6078 45.5537 67.8589 45.8294C72.0379 50.419 64.5163 55.6883 66.2146 59.4024C70.6087 66.5058 77.682 58.5946 75.4045 54.4731C73.127 50.3517 72.4112 43.723 78.9667 40.5209C87.4449 36.7217 88.8116 30.3893 88.3428 26.6618C88.2934 26.2691 88.8111 25.9794 89.0848 26.2653C97.647 35.2085 92.8474 42.5156 89.1556 45.4256C85.3227 48.4468 83.1337 53.8022 88.033 55.173C92.7983 56.066 93.8217 52.7238 93.7199 50.1198C93.7049 49.734 94.1848 49.5185 94.3955 49.842C97.5633 54.7041 91.8813 59.8262 95.1224 60.6908C101.197 61.8596 101.836 56.2626 101.256 53.5456C100.802 51.8323 100.754 50.2085 100.881 48.8641C100.924 48.4111 101.502 48.4965 101.552 48.9488C101.64 49.7524 101.812 50.6181 102.111 51.4626C105.383 59.1885 102.738 63.0572 101.851 64.3314C100.963 65.6055 94.464 72.9272 99.1736 74.8404C100.951 75.5625 102.071 74.8611 102.751 73.6431C102.983 73.2286 104.279 73.288 104.312 73.7616Z" stroke="#FF5B0B" stroke-width="1.25727"/>
<path d="M111.902 73.6116C107.007 80.2518 101.898 79.9354 99.9562 78.9471L102.872 88.604C103.726 85.6852 105.998 82.97 108.9 80.8086C115.466 74.9657 116.433 72.2682 116.194 70.0437C115.955 67.8193 113.583 68.5624 113.37 69.5261C113.157 70.4898 112.732 72.1781 111.902 73.6116Z" fill="#119767"/>
<mask id="mask1_4948_66786" style="mask-type:alpha" maskUnits="userSpaceOnUse" x="99" y="68" width="18" height="21">
<path d="M111.902 73.6116C107.007 80.2518 101.898 79.9354 99.9562 78.9471L102.872 88.604C103.726 85.6852 105.998 82.97 108.9 80.8086C115.466 74.9657 116.433 72.2682 116.194 70.0437C115.955 67.8193 113.583 68.5624 113.37 69.5261C113.157 70.4898 112.732 72.1781 111.902 73.6116Z" fill="#119767"/>
</mask>
<g mask="url(#mask1_4948_66786)">
<path d="M113.465 73.2797C109.421 80.8993 103.015 81.9189 99.8834 82.4476L108.691 67.906C111.967 66.5224 117.509 65.6602 113.465 73.2797Z" fill="#15B87D"/>
</g>
<path d="M111.902 73.6106C107.007 80.2508 101.898 79.9344 99.9562 78.9462L102.872 88.603C103.726 85.6843 105.998 82.969 108.9 80.8076C115.466 74.9647 116.433 72.2672 116.194 70.0428C115.955 67.8183 113.583 68.5615 113.37 69.5251C113.157 70.4888 112.732 72.1772 111.902 73.6106Z" stroke="black" stroke-width="0.838179"/>
<path d="M44.0153 108.366C25.934 104.541 18.3727 95.0435 16.8522 90.7731C16.7898 89.9968 16.8722 88.3297 17.7004 87.8713C19.1376 87.2254 18.7614 86.4086 31.1826 90.0393C57.8729 96.4801 81.241 80.2808 82.752 79.5538C84.2631 78.8267 88.4117 75.148 91.6247 74.2259C97.204 73.6491 102.064 80.5671 104.136 85.2703C104.838 91.49 104.571 93.4638 102.551 95.4595C95.7143 102.465 66.617 113.148 44.0153 108.366Z" fill="#B0280D"/>
<mask id="mask2_4948_66786" style="mask-type:alpha" maskUnits="userSpaceOnUse" x="16" y="74" width="89" height="36">
<path d="M44.0192 108.366C25.9379 104.541 18.3766 95.0435 16.8561 90.7731C16.7937 89.9968 16.8761 88.3297 17.7043 87.8713C19.1415 87.2254 18.7653 86.4086 31.1865 90.0393C57.8768 96.4801 81.2449 80.2808 82.756 79.5538C84.2671 78.8267 88.4156 75.148 91.6286 74.2259C97.208 73.6491 102.068 80.5671 104.14 85.2703C104.842 91.49 104.575 93.4638 102.555 95.4595C95.7182 102.465 66.6209 113.148 44.0192 108.366Z" fill="#9F2D24"/>
</mask>
<g mask="url(#mask2_4948_66786)">
<path d="M21.4302 89.3504C17.5773 87.1708 16.3674 88.7987 16.2441 89.8851C15.3542 89.2993 13.5748 87.4487 13.5763 84.7328C13.5783 81.338 86.5849 74.9063 89.3897 73.7522C92.1944 72.5981 106.406 75.4656 98.8576 85.624C63.1125 115.476 26.2463 92.0748 21.4302 89.3504Z" fill="#EF4321"/>
<path d="M41.6831 93.4833C38.3532 93.8029 30.9302 91.7038 27.7344 90.7725C28.3812 91.1182 40.9549 96.0098 42.2485 95.2315C42.9217 94.8264 42.8826 93.5012 41.6831 93.4833Z" fill="white"/>
<g filter="url(#filter4_g_4948_66786)">
<path d="M100.392 94.0954C75.7639 111.968 44.8305 112.512 24.1591 101.203L32.7401 116.403L111.688 106.091C117.959 93.7901 125.02 76.2225 100.392 94.0954Z" fill="#7E210E"/>
</g>
</g>
<path d="M91.512 79.4416C94.4865 76.8779 93.3286 75.1773 91.5882 74.3949C94.3465 74.3493 98.1712 74.9417 102.363 81.7685C106.196 88.0113 104.88 91.7461 103.909 93.6993C103.925 92.6882 103.438 90.7992 103.085 90.5841C102.44 90.745 99.5902 91.761 98.8097 92.054C99.253 90.3917 100.148 87.7517 99.843 86.5457C99.0081 86.9568 95.7484 86.9907 94.4531 86.7362C95.8612 85.2418 96.25 82.0328 96.1368 81.0354C95.9557 80.4951 92.8307 80.0654 91.512 79.4416Z" fill="#15B87D"/>
<mask id="mask3_4948_66786" style="mask-type:alpha" maskUnits="userSpaceOnUse" x="91" y="74" width="14" height="20">
<path d="M91.512 79.4416C94.4865 76.8779 93.3286 75.1773 91.5882 74.3949C94.3465 74.3493 98.1712 74.9417 102.363 81.7685C106.196 88.0113 104.88 91.7461 103.909 93.6993C103.925 92.6882 103.438 90.7992 103.085 90.5841C102.44 90.745 99.5902 91.761 98.8097 92.054C99.253 90.3917 100.148 87.7517 99.843 86.5457C99.0081 86.9568 95.7484 86.9907 94.4531 86.7362C95.8612 85.2418 96.25 82.0328 96.1368 81.0354C95.9557 80.4951 92.8307 80.0654 91.512 79.4416Z" fill="#119767"/>
</mask>
<g mask="url(#mask3_4948_66786)">
<path d="M104.061 76.3531C103.787 82.3134 97.4486 87.4702 96.0349 88.5693C95.8788 88.6907 95.8306 88.9024 95.9202 89.0786L100.658 98.4007C100.745 98.5724 100.938 98.6625 101.126 98.6191L105.727 97.5552C105.927 97.5091 106.064 97.3307 106.051 97.1263C105.474 87.8187 104.301 71.1584 104.061 76.3531Z" fill="#119767"/>
</g>
<path d="M44.0218 108.368C25.9404 104.542 18.3791 95.045 16.8586 90.7745C16.7962 89.9983 16.6259 88.3258 17.5717 87.8325C18.697 87.2454 19.6755 86.6243 31.189 90.0407C57.8793 96.4816 81.2474 80.2823 82.7585 79.5552C84.2696 78.8282 88.4181 75.1495 91.6311 74.2273C97.2105 73.6506 102.071 80.5685 104.142 85.2718C105.928 90.6088 104.578 93.4653 102.557 95.461C95.7207 102.466 66.6234 113.149 44.0218 108.368Z" stroke="black" stroke-width="0.838179"/>
<path d="M91.1348 74.4858C93.001 74.9436 94.4418 77.434 91.4722 79.1023C91.1405 79.2886 91.1574 79.7557 91.5282 79.8409C93.1225 80.207 95.6041 80.5935 96.0777 81.2278C96.1038 81.2627 96.1174 81.3025 96.124 81.3456C96.2831 82.3852 95.6924 84.9365 94.4693 86.3955C94.2426 86.6659 94.3532 87.0894 94.7057 87.1047C96.0396 87.1627 98.2148 86.9788 99.4932 86.5981C99.7116 86.5331 99.9509 86.6348 99.9815 86.8606C100.13 87.9519 99.5748 89.9486 98.7552 91.6986C98.604 92.0214 98.8679 92.3394 99.1986 92.2061C100.265 91.7762 101.928 91.0121 102.813 90.6707C103.024 90.5889 103.254 90.7057 103.324 90.9216C103.603 91.7786 104.04 93.3396 103.533 94.3898" stroke="black" stroke-width="0.838178"/>
<path d="M76.8438 88.4006C78.3757 87.8976 81.6788 86.8823 85.9953 84.0975" stroke="white" stroke-width="2.09545" stroke-linecap="round"/>
<path d="M85.8221 120.519C54.9335 106.72 44.2891 81.2405 42.828 70.2256C42.6913 69.3139 44.3848 61.7253 55.7068 59.8413C67.0287 57.9574 68.6113 63.4947 68.7585 63.8675C68.9057 64.2403 69.5533 69.1556 75.7522 82.5663C82.7547 96.0475 99.7271 108.696 100.231 109.1C100.736 109.504 111.512 117.919 111.803 122.803C111.369 129.782 101.306 126.559 85.8221 120.519Z" fill="#B0280D"/>
<path d="M57.5034 59.593C53.9882 61.7132 48.9565 62.2117 48.7779 62.196C49.8989 61.5697 50.4863 59.8312 50.1625 57.3736C49.4002 52.7389 49.8287 48.8871 50.3977 46.5079C50.9667 44.1287 54.1973 39.1045 57.3781 41.8132C60.5588 44.5219 57.44 46.2272 56.8856 45.3687C56.3313 44.5103 53.8442 43.1221 52.7955 47.8882C52.1152 54.8101 55.7018 58.5949 57.5034 59.593Z" fill="#119767"/>
<mask id="mask4_4948_66786" style="mask-type:alpha" maskUnits="userSpaceOnUse" x="48" y="41" width="11" height="22">
<path d="M57.5034 59.593C53.9882 61.7132 48.9565 62.2117 48.7779 62.196C49.8989 61.5697 50.4863 59.8312 50.1625 57.3736C49.4002 52.7389 49.8287 48.8871 50.3977 46.5079C50.9667 44.1287 54.1973 39.1045 57.3781 41.8132C60.5588 44.5219 57.44 46.2272 56.8856 45.3687C56.3313 44.5103 53.8442 43.1221 52.7955 47.8882C52.1152 54.8101 55.7018 58.5949 57.5034 59.593Z" fill="#404229"/>
</mask>
<g mask="url(#mask4_4948_66786)">
<path d="M51.9206 53.0891C52.4389 58.5105 54.7451 60.4717 55.8335 60.7747C57.3714 60.7914 58.1804 59.3331 58.3927 58.6019C58.1235 55.4896 58.3849 49.0925 58.6005 49.0641C58.87 49.0286 58.6351 44.0173 56.4618 43.1456C52.5441 41.5741 51.2727 46.3124 51.9206 53.0891Z" fill="#15B87D"/>
</g>
<path d="M49.4041 62.485L49.3467 62.5117C49.1867 62.5861 49.1451 62.5042 49.2622 62.3722C50.0767 61.4544 50.4419 59.4778 50.1646 57.3734C49.4024 52.7388 49.8309 48.8869 50.3999 46.5077C50.9688 44.1286 54.1995 39.1043 57.3802 41.8131C60.561 44.5218 57.4421 46.227 56.8878 45.3686C56.3335 44.5101 53.8464 43.1219 52.7977 47.8881C52.1812 54.1602 55.6601 58.0864 57.6591 59.5107C57.8087 59.6173 57.7377 59.8907 57.5546 59.9057C54.3898 60.1652 50.7957 61.8375 49.4041 62.485Z" stroke="black" stroke-width="0.838179"/>
<mask id="mask5_4948_66786" style="mask-type:alpha" maskUnits="userSpaceOnUse" x="42" y="59" width="70" height="68">
<path d="M85.8221 120.519C54.9335 106.72 44.2891 81.2405 42.828 70.2256C42.6913 69.3139 44.3848 61.7253 55.7068 59.8413C67.0287 57.9574 68.6113 63.4947 68.7585 63.8675C68.9057 64.2403 69.5533 69.1556 75.7522 82.5663C82.7547 96.0475 99.7271 108.696 100.231 109.1C100.736 109.504 111.512 117.919 111.803 122.803C111.369 129.782 101.306 126.559 85.8221 120.519Z" fill="#9E2C22"/>
</mask>
<g mask="url(#mask5_4948_66786)">
<g filter="url(#filter5_g_4948_66786)">
<path d="M60.8662 99.829C48.612 83.3448 49.3488 67.7676 51.249 62.0395C47.8117 64.4687 40.8347 69.7843 40.4247 71.6124C39.9122 73.8975 39.4495 99.8257 39.4282 100.744C39.4111 101.479 55.3708 118.29 63.3528 126.603C78.078 130.644 107.658 138.312 108.177 136.656C108.826 134.586 76.1838 120.434 60.8662 99.829Z" fill="#7E210E"/>
</g>
<path d="M91.2604 111.812C60.1769 93.6773 53.1186 68.7529 53.4749 58.5575L64.1748 57.6086L128.419 112.829C128.928 123.07 129.74 143.661 128.91 144.092C127.873 144.63 130.115 134.481 91.2604 111.812Z" fill="#EF4321"/>
<path d="M46.3282 67.8833C45.305 68.202 43.891 69.2454 42.9786 70.0055C42.8361 70.1242 42.6158 69.9769 42.6752 69.8013C43.7273 66.6939 45.2875 62.4787 53.7956 60.124C60.359 58.3076 65.0695 59.879 66.9175 61.1712C67.0677 61.2762 66.962 61.476 66.7826 61.4386C64.9568 61.058 64.0728 61.3402 63.5264 61.5425C63.4436 61.5732 63.3959 61.6599 63.4135 61.7465L63.8065 63.6814C63.8372 63.8325 63.6694 63.9624 63.5235 63.9125C62.4236 63.5355 60.1607 63.3878 58.9497 63.3572C58.8722 63.3552 58.8026 63.4037 58.777 63.4768L57.0878 68.3038C57.0512 68.4085 56.9292 68.4552 56.832 68.4015L51.9287 65.695C51.8468 65.6498 51.7439 65.6751 51.6924 65.7533L48.4139 70.7295C48.3405 70.841 48.1752 70.8359 48.1088 70.7201L46.5272 67.9643C46.487 67.8944 46.4052 67.8593 46.3282 67.8833Z" fill="#119767"/>
<mask id="mask6_4948_66786" style="mask-type:alpha" maskUnits="userSpaceOnUse" x="42" y="59" width="25" height="12">
<path d="M46.3282 67.8833C45.305 68.202 43.891 69.2454 42.9786 70.0055C42.8361 70.1242 42.6158 69.9769 42.6752 69.8013C43.7273 66.6939 45.2875 62.4787 53.7956 60.124C60.359 58.3076 65.0695 59.879 66.9175 61.1712C67.0677 61.2762 66.962 61.476 66.7826 61.4386C64.9568 61.058 64.0728 61.3402 63.5264 61.5425C63.4436 61.5732 63.3959 61.6599 63.4135 61.7465L63.8065 63.6814C63.8372 63.8325 63.6694 63.9624 63.5235 63.9125C62.4236 63.5355 60.1607 63.3878 58.9497 63.3572C58.8722 63.3552 58.8026 63.4037 58.777 63.4768L57.0878 68.3038C57.0512 68.4085 56.9292 68.4552 56.832 68.4015L51.9287 65.695C51.8468 65.6498 51.7439 65.6751 51.6924 65.7533L48.4139 70.7295C48.3405 70.841 48.1752 70.8359 48.1088 70.7201L46.5272 67.9643C46.487 67.8944 46.4052 67.8593 46.3282 67.8833Z" fill="#4A582F"/>
</mask>
<g mask="url(#mask6_4948_66786)">
<path d="M55.4815 56.3144C52.9435 59.6002 51.0953 68.3447 51.0483 68.8804L54.1947 70.9562L67.8396 67.2072L70.5865 60.521C66.3975 58.0236 57.512 53.6859 55.4815 56.3144Z" fill="#15B87D"/>
</g>
<path d="M43.2011 70.154C43.5348 69.5917 44.57 68.4176 46.1463 67.9758C46.3204 67.927 46.5022 68.0091 46.5932 68.1655L47.9802 70.5493C48.1386 70.8215 48.5296 70.8282 48.6972 70.5615L51.5708 65.9909C51.689 65.803 51.9331 65.7398 52.1276 65.8468L56.5985 68.3056C56.8257 68.4305 57.1106 68.3213 57.1961 68.0765L58.7262 63.6933C58.7847 63.5257 58.9415 63.4129 59.1189 63.4146C60.152 63.4247 61.8756 63.5112 63.0502 63.7841C63.3694 63.8582 63.7028 63.5889 63.6553 63.2647L63.4485 61.8548C63.4291 61.7226 63.4729 61.587 63.5844 61.5136C64.0741 61.1911 65.2091 60.8265 66.355 61.4126" stroke="black" stroke-width="0.838179"/>
<path d="M55.7755 60.2542C61.3702 59.3233 64.4803 60.2391 66.1943 61.3592C67.9043 62.4768 68.2978 63.8414 68.369 64.0217C68.3656 64.0131 68.3701 64.0254 68.3855 64.0898C68.3989 64.1456 68.4156 64.2205 68.4379 64.3199C68.4819 64.5168 68.5444 64.7951 68.6345 65.1607C68.8151 65.8929 69.1062 66.9714 69.5869 68.4569C70.5481 71.4273 72.2669 76.0242 75.3721 82.7419L75.3762 82.7511L75.3804 82.7593C78.9144 89.563 84.9494 96.1345 90.141 101.042C95.3368 105.953 99.7232 109.23 99.9691 109.427C100.223 109.63 103.027 111.822 105.803 114.569C107.191 115.944 108.563 117.448 109.602 118.902C110.643 120.359 111.307 121.708 111.382 122.799C111.329 123.611 111.139 124.246 110.839 124.738C110.539 125.23 110.115 125.6 109.56 125.861C108.43 126.391 106.751 126.469 104.519 126.128C100.071 125.449 93.7357 123.155 85.9896 120.134C55.2513 106.401 44.6881 81.0575 43.2439 70.1707L43.2425 70.1637L43.2433 70.0099C43.2493 69.9282 43.263 69.8152 43.2898 69.6709C43.3406 69.3972 43.4336 69.0414 43.5844 68.6272C43.8862 67.7986 44.4166 66.7467 45.2959 65.6622C47.0486 63.5005 50.2084 61.1806 55.7755 60.2542Z" stroke="black" stroke-width="0.838179"/>
</g>
<path d="M63.9248 68.4648C64.2423 70.6522 65.8174 76.3621 69.5777 81.7025" stroke="white" stroke-width="2.09545" stroke-linecap="round"/>
<path d="M73.0107 87.3818C73.8469 88.7606 75.582 91.749 79.2699 95.3248" stroke="white" stroke-width="2.09545" stroke-linecap="round"/>
<path d="M96.9026 109.678C97.6996 110.327 102.748 114.515 105.187 116.603C103.104 115.311 98.4926 112.186 96.5049 110.849C94.0203 109.178 85.3952 102.699 83.7392 101.197C82.0833 99.6943 83.9723 98.5434 84.7375 99.2503C87.8505 102.128 95.9063 108.867 96.9026 109.678Z" fill="white"/>
</g>
<defs>
<filter id="filter0_dd_4948_66786" x="-4" y="-3" width="152" height="152" filterUnits="userSpaceOnUse" color-interpolation-filters="sRGB">
<feFlood flood-opacity="0" result="BackgroundImageFix"/>
<feColorMatrix in="SourceAlpha" type="matrix" values="0 0 0 0 0 0 0 0 0 0 0 0 0 0 0 0 0 0 127 0" result="hardAlpha"/>
<feOffset dx="6" dy="6"/>
<feGaussianBlur stdDeviation="5"/>
<feComposite in2="hardAlpha" operator="out"/>
<feColorMatrix type="matrix" values="0 0 0 0 0.4 0 0 0 0 0.462745 0 0 0 0 0.6 0 0 0 0.3 0"/>
<feBlend mode="normal" in2="BackgroundImageFix" result="effect1_dropShadow_4948_66786"/>
<feColorMatrix in="SourceAlpha" type="matrix" values="0 0 0 0 0 0 0 0 0 0 0 0 0 0 0 0 0 0 127 0" result="hardAlpha"/>
<feOffset dx="1" dy="1"/>
<feGaussianBlur stdDeviation="2"/>
<feComposite in2="hardAlpha" operator="out"/>
<feColorMatrix type="matrix" values="0 0 0 0 0 0 0 0 0 0 0 0 0 0 0 0 0 0 0.4 0"/>
<feBlend mode="overlay" in2="effect1_dropShadow_4948_66786" result="effect2_dropShadow_4948_66786"/>
<feBlend mode="normal" in="SourceGraphic" in2="effect2_dropShadow_4948_66786" result="shape"/>
</filter>
<filter id="filter1_g_4948_66786" x="72.4214" y="14.855" width="41.6474" height="50.8693" filterUnits="userSpaceOnUse" color-interpolation-filters="sRGB">
<feFlood flood-opacity="0" result="BackgroundImageFix"/>
<feBlend mode="normal" in="SourceGraphic" in2="BackgroundImageFix" result="shape"/>
<feTurbulence type="fractalNoise" baseFrequency="2.1692056655883789 2.1692056655883789" numOctaves="3" seed="3964" />
<feDisplacementMap in="shape" scale="23.13372802734375" xChannelSelector="R" yChannelSelector="G" result="displacedImage" width="100%" height="100%" />
<feMerge result="effect1_texture_4948_66786">
<feMergeNode in="displacedImage"/>
</feMerge>
</filter>
<filter id="filter2_g_4948_66786" x="21.0933" y="-2.58298" width="52.371" height="54.0766" filterUnits="userSpaceOnUse" color-interpolation-filters="sRGB">
<feFlood flood-opacity="0" result="BackgroundImageFix"/>
<feBlend mode="normal" in="SourceGraphic" in2="BackgroundImageFix" result="shape"/>
<feTurbulence type="fractalNoise" baseFrequency="2.169205904006958 2.169205904006958" numOctaves="3" seed="3964" />
<feDisplacementMap in="shape" scale="23.133726119995117" xChannelSelector="R" yChannelSelector="G" result="displacedImage" width="100%" height="100%" />
<feMerge result="effect1_texture_4948_66786">
<feMergeNode in="displacedImage"/>
</feMerge>
</filter>
<filter id="filter3_g_4948_66786" x="-1.88718" y="35.4429" width="122.899" height="92.7328" filterUnits="userSpaceOnUse" color-interpolation-filters="sRGB">
<feFlood flood-opacity="0" result="BackgroundImageFix"/>
<feBlend mode="normal" in="SourceGraphic" in2="BackgroundImageFix" result="shape"/>
<feTurbulence type="fractalNoise" baseFrequency="2.1692056655883789 2.1692056655883789" numOctaves="3" seed="3964" />
<feDisplacementMap in="shape" scale="23.13372802734375" xChannelSelector="R" yChannelSelector="G" result="displacedImage" width="100%" height="100%" />
<feMerge result="effect1_texture_4948_66786">
<feMergeNode in="displacedImage"/>
</feMerge>
</filter>
<filter id="filter4_g_4948_66786" x="12.5923" y="74.9104" width="116.657" height="53.0593" filterUnits="userSpaceOnUse" color-interpolation-filters="sRGB">
<feFlood flood-opacity="0" result="BackgroundImageFix"/>
<feBlend mode="normal" in="SourceGraphic" in2="BackgroundImageFix" result="shape"/>
<feTurbulence type="fractalNoise" baseFrequency="2.169205904006958 2.169205904006958" numOctaves="3" seed="3964" />
<feDisplacementMap in="shape" scale="23.133726119995117" xChannelSelector="R" yChannelSelector="G" result="displacedImage" width="100%" height="100%" />
<feMerge result="effect1_texture_4948_66786">
<feMergeNode in="displacedImage"/>
</feMerge>
</filter>
<filter id="filter5_g_4948_66786" x="27.8609" y="50.4727" width="91.8925" height="97.9811" filterUnits="userSpaceOnUse" color-interpolation-filters="sRGB">
<feFlood flood-opacity="0" result="BackgroundImageFix"/>
<feBlend mode="normal" in="SourceGraphic" in2="BackgroundImageFix" result="shape"/>
<feTurbulence type="fractalNoise" baseFrequency="1.8354820013046265 1.8354820013046265" numOctaves="3" seed="3964" />
<feDisplacementMap in="shape" scale="23.133726119995117" xChannelSelector="R" yChannelSelector="G" result="displacedImage" width="100%" height="100%" />
<feMerge result="effect1_texture_4948_66786">
<feMergeNode in="displacedImage"/>
</feMerge>
</filter>
<linearGradient id="paint0_linear_4948_66786" x1="59.0579" y1="9.17385" x2="67.9635" y2="107.495" gradientUnits="userSpaceOnUse">
<stop stop-color="#FB9D1E"/>
<stop offset="1" stop-color="#FF8228"/>
</linearGradient>
<linearGradient id="paint1_linear_4948_66786" x1="59.0579" y1="9.17385" x2="67.9635" y2="107.495" gradientUnits="userSpaceOnUse">
<stop stop-color="#FB9D1E"/>
<stop offset="1" stop-color="#FF8228"/>
</linearGradient>
</defs>
</svg>
