<svg width="48" height="48" viewBox="0 0 48 48" fill="none" xmlns="http://www.w3.org/2000/svg">
<path d="M24.0049 1.25488C29.49 5.77201 36.7367 5.73286 42.4424 5.72656C42.6626 5.72632 42.8806 5.72559 43.0967 5.72559H43.373V25.7559C43.3729 33.1751 38.4672 38.5097 33.623 41.9697C31.1969 43.7027 28.772 44.9757 26.9551 45.8154C26.0463 46.2354 25.2882 46.5475 24.7568 46.7549C24.4521 46.8738 24.1424 46.9832 23.8281 47.0918C23.5143 46.9833 23.2047 46.8736 22.9004 46.7549C22.3689 46.5475 21.6109 46.2354 20.7021 45.8154C18.8852 44.9756 16.4603 43.7027 14.0342 41.9697C9.19005 38.5097 4.28535 33.1751 4.28516 25.7559V5.72559H4.56152C4.77759 5.72559 4.99555 5.72632 5.21582 5.72656C10.9216 5.73286 18.1682 5.77211 23.6533 1.25488L23.8291 1.10938L24.0049 1.25488Z" fill="#3C82FB" stroke="white" stroke-width="1.71429"/>
<path d="M24.2773 0.923828C29.6242 5.32716 36.705 5.30419 42.4414 5.29785C42.6617 5.29761 42.8803 5.29688 43.0967 5.29688H43.8018V25.7559C43.8016 33.3826 38.7575 38.8288 33.8721 42.3184C31.4184 44.071 28.9692 45.3567 27.1357 46.2041C26.218 46.6283 25.4516 46.9442 24.9131 47.1543C24.5562 47.2935 24.1942 47.421 23.8281 47.5459C23.4626 47.4212 23.1015 47.2933 22.7451 47.1543C22.2066 46.9442 21.4402 46.6283 20.5225 46.2041C18.6889 45.3566 16.2391 44.0712 13.7852 42.3184C8.89975 38.8288 3.85664 33.3826 3.85645 25.7559V5.29688H4.56152C4.77772 5.29688 4.99577 5.29761 5.21582 5.29785C10.9522 5.30419 18.0339 5.32725 23.3809 0.923828L23.8291 0.554688L24.2773 0.923828Z" stroke="#3C82FB" stroke-width="0.857143"/>
<path d="M16.9834 31.1856C16.9327 31.0212 16.8627 30.8741 16.7734 30.7443C16.6861 30.6124 16.5806 30.4997 16.4568 30.4064C16.3351 30.313 16.195 30.243 16.0368 30.1964C15.8785 30.1477 15.706 30.1233 15.5193 30.1233C15.1845 30.1233 14.8862 30.2075 14.6244 30.376C14.3627 30.5444 14.1567 30.7919 14.0065 31.1186C13.8584 31.4433 13.7843 31.839 13.7843 32.3057C13.7843 32.7765 13.8584 33.1753 14.0065 33.502C14.1547 33.8287 14.3606 34.0772 14.6244 34.2477C14.8882 34.4161 15.1946 34.5003 15.5437 34.5003C15.8602 34.5003 16.1342 34.4395 16.3655 34.3177C16.5989 34.196 16.7785 34.0235 16.9043 33.8003C17.0301 33.575 17.093 33.3112 17.093 33.0089L17.3487 33.0484H15.6563V32.1657H18.1857V32.9145C18.1857 33.4482 18.0721 33.9098 17.8448 34.2994C17.6175 34.6891 17.305 34.9894 16.9073 35.2004C16.5096 35.4094 16.053 35.5139 15.5376 35.5139C14.9633 35.5139 14.4591 35.3851 14.0248 35.1274C13.5926 34.8676 13.2547 34.4993 13.0112 34.0225C12.7697 33.5436 12.649 32.9754 12.649 32.3179C12.649 31.8147 12.72 31.3652 12.8621 30.9695C13.0061 30.5738 13.207 30.238 13.4647 29.962C13.7224 29.684 14.0248 29.4729 14.3718 29.3289C14.7188 29.1828 15.0962 29.1097 15.5041 29.1097C15.8491 29.1097 16.1707 29.1604 16.469 29.2619C16.7673 29.3613 17.0321 29.5034 17.2634 29.688C17.4968 29.8727 17.6886 30.0919 17.8387 30.3455C17.9889 30.5992 18.0873 30.8792 18.134 31.1856H16.9834ZM21.0044 35.4287H18.892V29.1949H21.047C21.6659 29.1949 22.1976 29.3197 22.642 29.5693C23.0884 29.8169 23.4313 30.173 23.6708 30.6377C23.9102 31.1024 24.03 31.6584 24.03 32.3057C24.03 32.9551 23.9092 33.5131 23.6677 33.9798C23.4283 34.4466 23.0823 34.8047 22.6298 35.0543C22.1793 35.3039 21.6375 35.4287 21.0044 35.4287ZM20.0212 34.4516H20.9496C21.3839 34.4516 21.7461 34.3725 22.0363 34.2142C22.3264 34.0539 22.5446 33.8155 22.6907 33.4989C22.8368 33.1803 22.9098 32.7826 22.9098 32.3057C22.9098 31.8289 22.8368 31.4332 22.6907 31.1186C22.5446 30.8021 22.3285 30.5657 22.0423 30.4094C21.7582 30.2512 21.4052 30.172 20.9831 30.172H20.0212V34.4516ZM24.7172 35.4287V29.1949H27.0549C27.5338 29.1949 27.9355 29.2842 28.2602 29.4628C28.5869 29.6414 28.8335 29.8869 28.9999 30.1994C29.1683 30.5099 29.2525 30.863 29.2525 31.2587C29.2525 31.6584 29.1683 32.0135 28.9999 32.324C28.8314 32.6345 28.5829 32.879 28.2541 33.0576C27.9254 33.2341 27.5206 33.3224 27.0396 33.3224H25.4903V32.394H26.8875C27.1675 32.394 27.3968 32.3453 27.5754 32.2479C27.7539 32.1505 27.8858 32.0166 27.9711 31.8461C28.0583 31.6757 28.1019 31.4798 28.1019 31.2587C28.1019 31.0375 28.0583 30.8427 27.9711 30.6742C27.8858 30.5058 27.7529 30.3749 27.5723 30.2816C27.3937 30.1862 27.1634 30.1385 26.8814 30.1385H25.8465V35.4287H24.7172ZM29.8477 35.4287V29.1949H32.1853C32.6642 29.1949 33.066 29.2781 33.3907 29.4445C33.7174 29.6109 33.9639 29.8443 34.1303 30.1446C34.2988 30.4429 34.383 30.7909 34.383 31.1887C34.383 31.5884 34.2977 31.9354 34.1273 32.2296C33.9589 32.5219 33.7103 32.7481 33.3816 32.9084C33.0528 33.0667 32.649 33.1458 32.1701 33.1458H30.5051V32.2083H32.0179C32.298 32.2083 32.5273 32.1698 32.7058 32.0927C32.8844 32.0135 33.0163 31.8989 33.1015 31.7487C33.1888 31.5965 33.2324 31.4098 33.2324 31.1887C33.2324 30.9675 33.1888 30.7788 33.1015 30.6225C33.0143 30.4642 32.8814 30.3445 32.7028 30.2633C32.5242 30.1801 32.2939 30.1385 32.0118 30.1385H30.9769V35.4287H29.8477ZM33.068 32.604L34.6113 35.4287H33.3511L31.8353 32.604H33.068Z" fill="white"/>
<path d="M26.3569 17.1433C26.002 17.1433 25.714 16.8553 25.714 16.5004V13.7147C25.714 12.5336 24.7523 11.5718 23.5711 11.5718C22.39 11.5718 21.4283 12.5336 21.4283 13.7147V16.5004C21.4283 16.8553 21.1403 17.1433 20.7854 17.1433C20.4306 17.1433 20.1426 16.8553 20.1426 16.5004V13.7147C20.1426 11.8238 21.6803 10.2861 23.5711 10.2861C25.462 10.2861 26.9997 11.8238 26.9997 13.7147V16.5004C26.9997 16.8553 26.7117 17.1433 26.3569 17.1433Z" fill="white"/>
<path d="M26.7857 15.8574H20.3571C19.0569 15.8574 18 16.9143 18 18.2146V21.6431C18 22.9434 19.0569 24.0003 20.3571 24.0003H26.7857C28.086 24.0003 29.1429 22.9434 29.1429 21.6431V18.2146C29.1429 16.9143 28.086 15.8574 26.7857 15.8574ZM24.2143 20.3574C24.2143 20.7123 23.9263 21.0003 23.5714 21.0003C23.2166 21.0003 22.9286 20.7123 22.9286 20.3574V19.5003C22.9286 19.1454 23.2166 18.8574 23.5714 18.8574C23.9263 18.8574 24.2143 19.1454 24.2143 19.5003V20.3574Z" fill="white"/>
</svg>
