<svg width="47" height="48" viewBox="0 0 47 48" fill="none" xmlns="http://www.w3.org/2000/svg">
<path d="M44.9336 29.5718C42.4594 39.1832 33.7353 46.2854 23.3516 46.2856L22.7764 46.2788C12.6463 46.0224 4.19705 39.0056 1.76855 29.5718H6.60645C8.93922 36.5852 15.5548 41.6431 23.3516 41.6431C31.1481 41.6428 37.7631 36.585 40.0957 29.5718H44.9336ZM23.9268 1.72119C34.0563 1.97807 42.5052 8.99467 44.9336 18.4282H40.0957C37.7631 11.415 31.148 6.35717 23.3516 6.35693C15.5549 6.35693 8.93931 11.4148 6.60645 18.4282H1.76758C4.24188 8.81652 12.9676 1.71436 23.3516 1.71436L23.9268 1.72119Z" fill="#3C82FB"/>
<path d="M46.707 29.5527C44.2015 40.1301 34.6969 47.9999 23.3535 48C12.0101 48 2.50555 40.1302 0 29.5527H0.882812C3.37006 39.6521 12.4863 47.1426 23.3535 47.1426C34.2207 47.1425 43.337 39.6521 45.8242 29.5527H46.707ZM23.3535 0C34.6969 6.45355e-05 44.2015 7.86985 46.707 18.4473H45.8242C43.337 8.34786 34.2207 0.857486 23.3535 0.857422C12.4863 0.857422 3.37006 8.34785 0.882812 18.4473H0C2.50555 7.86984 12.0101 0 23.3535 0Z" fill="#3C82FB"/>
<path d="M25.3386 20.7072V18.1512H23.2842C22.653 18.0624 22.0194 18.012 21.381 18C19.0145 18 17.3945 18.8664 17.3945 20.7792C17.3945 24.5449 22.821 22.9032 22.821 24.3121C22.821 24.7441 22.389 24.9865 21.321 24.9865C20.5146 24.9865 19.8114 24.8161 19.509 24.6553V24.1105H17.4545V26.6665H19.509C20.1762 26.7553 20.8482 26.8057 21.5226 26.8177C24.633 26.8177 25.6698 25.5505 25.6698 24.0001C25.6698 20.256 20.193 21.9768 20.193 20.4768C20.193 20.1144 20.565 19.8336 21.5226 19.8336C22.2666 19.8336 22.9818 20.004 23.2842 20.1648V20.7096L25.3386 20.7072Z" fill="#1C1D22"/>
<path d="M11.3535 24.5713V26.6857H16.84V24.5713H15.46V20.2848H16.84V18.1704H11.3535V20.2848H12.7311V24.5713H11.3535Z" fill="#1C1D22"/>
<path d="M30.6921 18C27.9729 18 26.0312 19.5792 26.0312 22.4088C26.0312 25.2385 27.9753 26.8177 30.6921 26.8177C33.4089 26.8177 35.3529 25.2361 35.3529 22.4088C35.3529 19.5816 33.4089 18 30.6921 18ZM30.6921 24.8137C29.6145 24.8137 28.9305 24.1297 28.9305 22.4088C28.9305 20.688 29.6145 20.004 30.6921 20.004C31.7697 20.004 32.4537 20.688 32.4537 22.4088C32.4537 24.1297 31.7697 24.8137 30.6921 24.8137Z" fill="#1C1D22"/>
<path d="M16.4449 33.2856V32.7962L17.7434 31.5233C17.8676 31.3979 17.9711 31.2865 18.0539 31.1891C18.1367 31.0917 18.1988 30.9973 18.2402 30.906C18.2816 30.8147 18.3023 30.7173 18.3023 30.6138C18.3023 30.4957 18.2755 30.3946 18.2219 30.3106C18.1683 30.2254 18.0947 30.1596 18.0009 30.1134C17.9072 30.0671 17.8006 30.044 17.6813 30.044C17.5583 30.044 17.4506 30.0695 17.3581 30.1207C17.2655 30.1706 17.1937 30.2418 17.1426 30.3343C17.0926 30.4269 17.0677 30.5371 17.0677 30.6649H16.423C16.423 30.4275 16.4772 30.2211 16.5855 30.0458C16.6939 29.8705 16.843 29.7347 17.033 29.6385C17.2241 29.5423 17.4433 29.4942 17.6904 29.4942C17.9413 29.4942 18.1616 29.5411 18.3516 29.6349C18.5415 29.7286 18.6888 29.8571 18.7935 30.0202C18.8995 30.1834 18.9524 30.3697 18.9524 30.5791C18.9524 30.7191 18.9256 30.8567 18.8721 30.9918C18.8185 31.127 18.7241 31.2767 18.589 31.4411C18.4551 31.6054 18.2669 31.8045 18.0247 32.0383L17.38 32.6939V32.7195H19.009V33.2856H16.4449ZM19.6732 33.2856L21.2639 30.1371V30.1115H19.4175V29.5454H21.9652V30.1243L20.3763 33.2856H19.6732ZM23.754 33.3569C23.4532 33.3569 23.1951 33.2808 22.9796 33.1286C22.7653 32.9752 22.6003 32.7542 22.4847 32.4656C22.3702 32.1759 22.313 31.827 22.313 31.4192C22.3142 31.0113 22.3721 30.6643 22.4865 30.3782C22.6022 30.0908 22.7671 29.8717 22.9814 29.7207C23.1969 29.5697 23.4544 29.4942 23.754 29.4942C24.0535 29.4942 24.311 29.5697 24.5265 29.7207C24.742 29.8717 24.907 30.0908 25.0214 30.3782C25.1371 30.6655 25.1949 31.0125 25.1949 31.4192C25.1949 31.8283 25.1371 32.1777 25.0214 32.4675C24.907 32.756 24.742 32.9764 24.5265 33.1286C24.3122 33.2808 24.0547 33.3569 23.754 33.3569ZM23.754 32.7852C23.9877 32.7852 24.1722 32.6702 24.3073 32.4401C24.4437 32.2087 24.5119 31.8684 24.5119 31.4192C24.5119 31.1221 24.4808 30.8725 24.4187 30.6704C24.3566 30.4683 24.269 30.3161 24.1557 30.2138C24.0425 30.1103 23.9086 30.0586 23.754 30.0586C23.5214 30.0586 23.3376 30.1742 23.2024 30.4056C23.0673 30.6357 22.9991 30.9736 22.9979 31.4192C22.9967 31.7175 23.0265 31.9683 23.0874 32.1716C23.1495 32.3749 23.2371 32.5283 23.3503 32.6318C23.4636 32.7341 23.5981 32.7852 23.754 32.7852ZM27.0813 33.3569C26.7806 33.3569 26.5225 33.2808 26.307 33.1286C26.0927 32.9752 25.9277 32.7542 25.8121 32.4656C25.6976 32.1759 25.6404 31.827 25.6404 31.4192C25.6416 31.0113 25.6994 30.6643 25.8139 30.3782C25.9296 30.0908 26.0945 29.8717 26.3088 29.7207C26.5243 29.5697 26.7818 29.4942 27.0813 29.4942C27.3809 29.4942 27.6384 29.5697 27.8539 29.7207C28.0694 29.8717 28.2343 30.0908 28.3488 30.3782C28.4645 30.6655 28.5223 31.0125 28.5223 31.4192C28.5223 31.8283 28.4645 32.1777 28.3488 32.4675C28.2343 32.756 28.0694 32.9764 27.8539 33.1286C27.6396 33.2808 27.3821 33.3569 27.0813 33.3569ZM27.0813 32.7852C27.3151 32.7852 27.4996 32.6702 27.6347 32.4401C27.7711 32.2087 27.8393 31.8684 27.8393 31.4192C27.8393 31.1221 27.8082 30.8725 27.7461 30.6704C27.684 30.4683 27.5964 30.3161 27.4831 30.2138C27.3699 30.1103 27.236 30.0586 27.0813 30.0586C26.8488 30.0586 26.6649 30.1742 26.5298 30.4056C26.3947 30.6357 26.3265 30.9736 26.3253 31.4192C26.324 31.7175 26.3539 31.9683 26.4147 32.1716C26.4768 32.3749 26.5645 32.5283 26.6777 32.6318C26.791 32.7341 26.9255 32.7852 27.0813 32.7852ZM30.5475 29.5454V33.2856H29.87V30.2047H29.8481L28.9733 30.7635V30.1426L29.9028 29.5454H30.5475Z" fill="#1C1D22"/>
<path d="M3.34083 21.1012C3.47198 20.8685 3.80704 20.8685 3.93819 21.1012L4.6507 22.3653C4.69963 22.4521 4.7839 22.5134 4.88157 22.5331L6.304 22.8201C6.56582 22.8729 6.66936 23.1916 6.4886 23.3882L5.50652 24.4565C5.43909 24.5298 5.4069 24.6289 5.41834 24.7279L5.58494 26.1694C5.6156 26.4347 5.34453 26.6316 5.10166 26.5205L3.78219 25.9166C3.69159 25.8751 3.58743 25.8751 3.49682 25.9166L2.17736 26.5205C1.93449 26.6316 1.66342 26.4347 1.69408 26.1694L1.86068 24.7279C1.87212 24.6289 1.83993 24.5298 1.7725 24.4565L0.790422 23.3882C0.609659 23.1916 0.7132 22.8729 0.975016 22.8201L2.39745 22.5331C2.49512 22.5134 2.57939 22.4521 2.62832 22.3653L3.34083 21.1012Z" fill="#3C82FB"/>
<path d="M42.7686 21.1012C42.8997 20.8685 43.2348 20.8685 43.3659 21.1012L44.0784 22.3653C44.1274 22.4521 44.2116 22.5134 44.3093 22.5331L45.7317 22.8201C45.9936 22.8729 46.0971 23.1916 45.9163 23.3882L44.9343 24.4565C44.8668 24.5298 44.8346 24.6289 44.8461 24.7279L45.0127 26.1694C45.0433 26.4347 44.7723 26.6316 44.5294 26.5205L43.2099 25.9166C43.1193 25.8751 43.0152 25.8751 42.9246 25.9166L41.6051 26.5205C41.3622 26.6316 41.0912 26.4347 41.1218 26.1694L41.2884 24.7279C41.2999 24.6289 41.2677 24.5298 41.2002 24.4565L40.2182 23.3882C40.0374 23.1916 40.1409 22.8729 40.4028 22.8201L41.8252 22.5331C41.9229 22.5134 42.0071 22.4521 42.0561 22.3653L42.7686 21.1012Z" fill="#3C82FB"/>
</svg>
